<svg width="44" height="45" viewBox="0 0 44 45" fill="none" xmlns="http://www.w3.org/2000/svg">
<path fill-rule="evenodd" clip-rule="evenodd" d="M27.0142 0.5H6V25.7002V44.4999V44.5002H38.8V44.4999V25.7002V12.2858L27.0142 0.5ZM36.8 25.7002V14.1H25.2V2.5H8V25.7002H36.8Z" fill="#FF9C28"/>
<path d="M22.5072 37.15H19.5822L19.0242 38.5H17.5302L20.3382 32.2H21.7782L24.5952 38.5H23.0652L22.5072 37.15ZM22.0482 36.043L21.0492 33.631L20.0502 36.043H22.0482Z" fill="white"/>
<path d="M25.3298 33.658H26.7338V38.5H25.3298V33.658ZM26.0318 32.983C25.7738 32.983 25.5638 32.908 25.4018 32.758C25.2398 32.608 25.1588 32.422 25.1588 32.2C25.1588 31.978 25.2398 31.792 25.4018 31.642C25.5638 31.492 25.7738 31.417 26.0318 31.417C26.2898 31.417 26.4998 31.489 26.6618 31.633C26.8238 31.777 26.9048 31.957 26.9048 32.173C26.9048 32.407 26.8238 32.602 26.6618 32.758C26.4998 32.908 26.2898 32.983 26.0318 32.983Z" fill="white"/>
</svg>
