<svg xmlns="http://www.w3.org/2000/svg" fill="none" viewBox="0 0 33 31">
  <path fill="#4A4A4A" fill-rule="evenodd" d="M2.3333.6667H1v2.6667h1.3333C3.8061 3.3334 5 4.5274 5 6.0001v12c0 1.2176.408 2.3399 1.0948 3.2376-1.447.7925-2.4281 2.3295-2.4281 4.0957 0 2.5773 2.0893 4.6667 4.6666 4.6667 2.5774 0 4.6667-2.0894 4.6667-4.6667a4.6481 4.6481 0 00-.4491-2h10.2315a4.6496 4.6496 0 00-.4491 2c0 2.5773 2.0894 4.6667 4.6667 4.6667 2.5773 0 4.6667-2.0894 4.6667-4.6667 0-2.5773-2.0894-4.6667-4.6667-4.6667H10.3333c-1.4727 0-2.6666-1.1939-2.6666-2.6666v-12c0-2.9455-2.3878-5.3334-5.3334-5.3334zm24.6639 22.6667c-1.1033.0015-1.9972.8964-1.9972 2 0 1.1046.8954 2 2 2s2-.8954 2-2-.8954-2-2-2h-.0028zm-18.6639 4c1.1046 0 2-.8954 2-2s-.8954-2-2-2c-1.1045 0-2 .8954-2 2s.8955 2 2 2z" clip-rule="evenodd"/>
  <path fill="#fff" d="M1 .6667v-.35H.65v.35H1zm0 2.6667H.65v.35H1v-.35zm5.0948 17.9043l.1681.307.3576-.1959-.2477-.3238-.278.2127zm6.4561 2.0957v-.35h-.5537l.2376.5002.3161-.1502zm10.2315 0l.3162.1502.2376-.5002h-.5538v.35zm4.2148 0v-.35h-.0005l.0005.35zm.0028 0v.35-.35zM1 1.0167h1.3333v-.7H1v.7zm.35 2.3167V.6667h-.7v2.6667h.7zm.9833-.35H1v.7h1.3333v-.7zM5.35 6.0001c0-1.666-1.3506-3.0167-3.0167-3.0167v.7c1.2795 0 2.3167 1.0372 2.3167 2.3167h.7zm0 12v-12h-.7v12h.7zm1.0228 3.0249A4.9598 4.9598 0 015.35 18.0001h-.7c0 1.2971.435 2.4936 1.1668 3.4503l.556-.4254zm-2.3561 4.3084c0-1.6332.9069-3.0551 2.2462-3.7887l-.3362-.614c-1.5546.8515-2.61 2.5036-2.61 4.4027h.7zm4.3166 4.3167c-2.384 0-4.3166-1.9327-4.3166-4.3167h-.7c0 2.7706 2.246 5.0167 5.0166 5.0167v-.7zm4.3167-4.3167c0 2.384-1.9326 4.3167-4.3167 4.3167v.7c2.7707 0 5.0167-2.2461 5.0167-5.0167h-.7zm-.4152-1.8498a4.2988 4.2988 0 01.4152 1.8498h.7a4.9996 4.9996 0 00-.4829-2.1502l-.6323.3004zm10.5476-.5002H12.5509v.7h10.2315v-.7zm-.0991 2.35c0-.6627.1491-1.2896.4153-1.8498l-.6323-.3004a4.9982 4.9982 0 00-.483 2.1502h.7zM27 29.6501c-2.384 0-4.3167-1.9327-4.3167-4.3167h-.7c0 2.7706 2.2461 5.0167 5.0167 5.0167v-.7zm4.3167-4.3167c0 2.384-1.9327 4.3167-4.3167 4.3167v.7c2.7706 0 5.0167-2.2461 5.0167-5.0167h-.7zM27 21.0167c2.384 0 4.3167 1.9327 4.3167 4.3167h.7c0-2.7706-2.2461-5.0167-5.0167-5.0167v.7zm-16.6667 0H27v-.7H10.3333v.7zm-3.0166-3.0166c0 1.666 1.3506 3.0166 3.0166 3.0166v-.7c-1.2794 0-2.3166-1.0372-2.3166-2.3166h-.7zm0-12v12h.7v-12h-.7zM2.3333 1.0168c2.7522 0 4.9834 2.231 4.9834 4.9833h.7c0-3.1388-2.5446-5.6834-5.6834-5.6834v.7zM25.35 25.3334c0-.9105.7375-1.6487 1.6477-1.65l-.001-.7c-1.2963.0018-2.3467 1.0532-2.3467 2.35h.7zm1.65 1.65c-.9113 0-1.65-.7387-1.65-1.65h-.7c0 1.2979 1.0521 2.35 2.35 2.35v-.7zm1.65-1.65c0 .9113-.7387 1.65-1.65 1.65v.7c1.2979 0 2.35-1.0521 2.35-2.35h-.7zm-1.65-1.65c.9113 0 1.65.7387 1.65 1.65h.7c0-1.2979-1.0521-2.35-2.35-2.35v.7zm-.0028 0H27v-.7h-.0001-.0001-.0002-.0001-.0002-.0001-.0001-.0001-.0001-.0002-.0001-.0002-.0001-.0002-.0001-.0002H26.9975h-.0001-.0002v.7zm-17.0139 1.65c0 .9113-.7387 1.65-1.65 1.65v.7c1.2979 0 2.35-1.0521 2.35-2.35h-.7zm-1.65-1.65c.9113 0 1.65.7387 1.65 1.65h.7c0-1.2979-1.0521-2.35-2.35-2.35v.7zm-1.65 1.65c0-.9113.7388-1.65 1.65-1.65v-.7c-1.2978 0-2.35 1.0521-2.35 2.35h.7zm1.65 1.65c-.9112 0-1.65-.7387-1.65-1.65h-.7c0 1.2979 1.0522 2.35 2.35 2.35v-.7z"/>
</svg>
