<svg width="44" height="45" viewBox="0 0 44 45" fill="none" xmlns="http://www.w3.org/2000/svg">
<path fill-rule="evenodd" clip-rule="evenodd" d="M27.0142 0.5H6V25.7002V44.4999V44.5002H38.8V44.4999V25.7002V12.2858L27.0142 0.5ZM36.8 25.7002V14.1H25.2V2.5H8V25.7002H36.8Z" fill="#CE6F00"/>
<path d="M18.7604 37.33V38.5H13.8824V32.2H18.6434V33.37H15.3314V34.738H18.2564V35.872H15.3314V37.33H18.7604Z" fill="white"/>
<path d="M22.8275 32.2C23.3855 32.2 23.8685 32.293 24.2765 32.479C24.6905 32.665 25.0085 32.929 25.2305 33.271C25.4525 33.613 25.5635 34.018 25.5635 34.486C25.5635 34.948 25.4525 35.353 25.2305 35.701C25.0085 36.043 24.6905 36.307 24.2765 36.493C23.8685 36.673 23.3855 36.763 22.8275 36.763H21.5585V38.5H20.1005V32.2H22.8275ZM22.7465 35.575C23.1845 35.575 23.5175 35.482 23.7455 35.296C23.9735 35.104 24.0875 34.834 24.0875 34.486C24.0875 34.132 23.9735 33.862 23.7455 33.676C23.5175 33.484 23.1845 33.388 22.7465 33.388H21.5585V35.575H22.7465Z" fill="white"/>
<path d="M28.9423 38.608C28.4443 38.608 27.9613 38.542 27.4933 38.41C27.0313 38.272 26.6593 38.095 26.3773 37.879L26.8723 36.781C27.1423 36.979 27.4633 37.138 27.8353 37.258C28.2073 37.378 28.5793 37.438 28.9513 37.438C29.3653 37.438 29.6713 37.378 29.8693 37.258C30.0673 37.132 30.1663 36.967 30.1663 36.763C30.1663 36.613 30.1063 36.49 29.9863 36.394C29.8723 36.292 29.7223 36.211 29.5363 36.151C29.3563 36.091 29.1103 36.025 28.7983 35.953C28.3183 35.839 27.9253 35.725 27.6193 35.611C27.3133 35.497 27.0493 35.314 26.8273 35.062C26.6113 34.81 26.5033 34.474 26.5033 34.054C26.5033 33.688 26.6023 33.358 26.8003 33.064C26.9983 32.764 27.2953 32.527 27.6913 32.353C28.0933 32.179 28.5823 32.092 29.1583 32.092C29.5603 32.092 29.9533 32.14 30.3373 32.236C30.7213 32.332 31.0573 32.47 31.3453 32.65L30.8953 33.757C30.3133 33.427 29.7313 33.262 29.1493 33.262C28.7413 33.262 28.4383 33.328 28.2403 33.46C28.0483 33.592 27.9523 33.766 27.9523 33.982C27.9523 34.198 28.0633 34.36 28.2853 34.468C28.5133 34.57 28.8583 34.672 29.3203 34.774C29.8003 34.888 30.1933 35.002 30.4993 35.116C30.8053 35.23 31.0663 35.41 31.2823 35.656C31.5043 35.902 31.6153 36.235 31.6153 36.655C31.6153 37.015 31.5133 37.345 31.3093 37.645C31.1113 37.939 30.8113 38.173 30.4093 38.347C30.0073 38.521 29.5183 38.608 28.9423 38.608Z" fill="white"/>
</svg>
