<svg width="44" height="45" viewBox="0 0 44 45" fill="none" xmlns="http://www.w3.org/2000/svg">
<path fill-rule="evenodd" clip-rule="evenodd" d="M27.0142 0.5H6V25.7002V44.4999V44.5002H38.8V44.4999V25.7002V12.2858L27.0142 0.5ZM36.8 25.7002V14.1H25.2V2.5H8V25.7002H36.8Z" fill="#1A067F"/>
<path d="M18.6091 38.5L18.6001 34.72L16.7461 37.834H16.0891L14.2441 34.801V38.5H12.8761V32.2H14.0821L16.4401 36.115L18.7621 32.2H19.9591L19.9771 38.5H18.6091Z" fill="white"/>
<path d="M24.3788 32.2C24.9368 32.2 25.4198 32.293 25.8278 32.479C26.2418 32.665 26.5598 32.929 26.7818 33.271C27.0038 33.613 27.1148 34.018 27.1148 34.486C27.1148 34.948 27.0038 35.353 26.7818 35.701C26.5598 36.043 26.2418 36.307 25.8278 36.493C25.4198 36.673 24.9368 36.763 24.3788 36.763H23.1098V38.5H21.6518V32.2H24.3788ZM24.2978 35.575C24.7358 35.575 25.0688 35.482 25.2968 35.296C25.5248 35.104 25.6388 34.834 25.6388 34.486C25.6388 34.132 25.5248 33.862 25.2968 33.676C25.0688 33.484 24.7358 33.388 24.2978 33.388H23.1098V35.575H24.2978Z" fill="white"/>
<path d="M30.8388 34.765C31.3908 34.855 31.8138 35.062 32.1078 35.386C32.4018 35.704 32.5488 36.1 32.5488 36.574C32.5488 36.94 32.4528 37.279 32.2608 37.591C32.0688 37.897 31.7748 38.143 31.3788 38.329C30.9888 38.515 30.5088 38.608 29.9388 38.608C29.4948 38.608 29.0568 38.551 28.6248 38.437C28.1988 38.317 27.8358 38.149 27.5358 37.933L28.1028 36.817C28.3428 36.997 28.6188 37.138 28.9308 37.24C29.2488 37.336 29.5728 37.384 29.9028 37.384C30.2688 37.384 30.5568 37.315 30.7668 37.177C30.9768 37.033 31.0818 36.832 31.0818 36.574C31.0818 36.058 30.6888 35.8 29.9028 35.8H29.2368V34.837L30.5328 33.37H27.8508V32.2H32.2608V33.145L30.8388 34.765Z" fill="white"/>
</svg>
