<svg width="44" height="45" viewBox="0 0 44 45" fill="none" xmlns="http://www.w3.org/2000/svg">
<path fill-rule="evenodd" clip-rule="evenodd" d="M27.0142 0.5H6V25.7002V44.4999V44.5002H38.8V44.4999V25.7002V12.2858L27.0142 0.5ZM36.8 25.7002V14.1H25.2V2.5H8V25.7002H36.8Z" fill="#C93C00"/>
<path d="M15.3778 38.608C14.7238 38.608 14.1328 38.467 13.6048 38.185C13.0828 37.903 12.6718 37.516 12.3718 37.024C12.0778 36.526 11.9308 35.968 11.9308 35.35C11.9308 34.732 12.0778 34.177 12.3718 33.685C12.6718 33.187 13.0828 32.797 13.6048 32.515C14.1328 32.233 14.7238 32.092 15.3778 32.092C16.0318 32.092 16.6198 32.233 17.1418 32.515C17.6638 32.797 18.0748 33.187 18.3748 33.685C18.6748 34.177 18.8248 34.732 18.8248 35.35C18.8248 35.968 18.6748 36.526 18.3748 37.024C18.0748 37.516 17.6638 37.903 17.1418 38.185C16.6198 38.467 16.0318 38.608 15.3778 38.608ZM15.3778 37.366C15.7498 37.366 16.0858 37.282 16.3858 37.114C16.6858 36.94 16.9198 36.7 17.0878 36.394C17.2618 36.088 17.3488 35.74 17.3488 35.35C17.3488 34.96 17.2618 34.612 17.0878 34.306C16.9198 34 16.6858 33.763 16.3858 33.595C16.0858 33.421 15.7498 33.334 15.3778 33.334C15.0058 33.334 14.6698 33.421 14.3698 33.595C14.0698 33.763 13.8328 34 13.6588 34.306C13.4908 34.612 13.4068 34.96 13.4068 35.35C13.4068 35.74 13.4908 36.088 13.6588 36.394C13.8328 36.7 14.0698 36.94 14.3698 37.114C14.6698 37.282 15.0058 37.366 15.3778 37.366Z" fill="white"/>
<path d="M24.3575 35.251H25.6895V37.807C25.3475 38.065 24.9515 38.263 24.5015 38.401C24.0515 38.539 23.5985 38.608 23.1425 38.608C22.4885 38.608 21.9005 38.47 21.3785 38.194C20.8565 37.912 20.4455 37.525 20.1455 37.033C19.8515 36.535 19.7045 35.974 19.7045 35.35C19.7045 34.726 19.8515 34.168 20.1455 33.676C20.4455 33.178 20.8595 32.791 21.3875 32.515C21.9155 32.233 22.5095 32.092 23.1695 32.092C23.7215 32.092 24.2225 32.185 24.6725 32.371C25.1225 32.557 25.5005 32.827 25.8065 33.181L24.8705 34.045C24.4205 33.571 23.8775 33.334 23.2415 33.334C22.8395 33.334 22.4825 33.418 22.1705 33.586C21.8585 33.754 21.6155 33.991 21.4415 34.297C21.2675 34.603 21.1805 34.954 21.1805 35.35C21.1805 35.74 21.2675 36.088 21.4415 36.394C21.6155 36.7 21.8555 36.94 22.1615 37.114C22.4735 37.282 22.8275 37.366 23.2235 37.366C23.6435 37.366 24.0215 37.276 24.3575 37.096V35.251Z" fill="white"/>
<path d="M31.4809 35.251H32.8129V37.807C32.4709 38.065 32.0749 38.263 31.6249 38.401C31.1749 38.539 30.7219 38.608 30.2659 38.608C29.6119 38.608 29.0239 38.47 28.5019 38.194C27.9799 37.912 27.5689 37.525 27.2689 37.033C26.9749 36.535 26.8279 35.974 26.8279 35.35C26.8279 34.726 26.9749 34.168 27.2689 33.676C27.5689 33.178 27.9829 32.791 28.5109 32.515C29.0389 32.233 29.6329 32.092 30.2929 32.092C30.8449 32.092 31.3459 32.185 31.7959 32.371C32.2459 32.557 32.6239 32.827 32.9299 33.181L31.9939 34.045C31.5439 33.571 31.0009 33.334 30.3649 33.334C29.9629 33.334 29.6059 33.418 29.2939 33.586C28.9819 33.754 28.7389 33.991 28.5649 34.297C28.3909 34.603 28.3039 34.954 28.3039 35.35C28.3039 35.74 28.3909 36.088 28.5649 36.394C28.7389 36.7 28.9789 36.94 29.2849 37.114C29.5969 37.282 29.9509 37.366 30.3469 37.366C30.7669 37.366 31.1449 37.276 31.4809 37.096V35.251Z" fill="white"/>
</svg>
