<svg width="44" height="45" viewBox="0 0 44 45" fill="none" xmlns="http://www.w3.org/2000/svg">
<path fill-rule="evenodd" clip-rule="evenodd" d="M27.0142 0.5H6V25.7002V44.4999V44.5002H38.8V44.4999V25.7002V12.2858L27.0142 0.5ZM36.8 25.7002V14.1H25.2V2.5H8V25.7002H36.8Z" fill="#446781"/>
<path d="M15.8685 33.388H13.8525V32.2H19.3425V33.388H17.3265V38.5H15.8685V33.388Z" fill="white"/>
<path d="M24.0036 38.5L22.4826 36.313L20.9886 38.5H19.3146L21.6456 35.296L19.4316 32.2H21.0876L22.5366 34.243L23.9586 32.2H25.5336L23.3376 35.242L25.6866 38.5H24.0036Z" fill="white"/>
<path d="M27.6719 33.388H25.6559V32.2H31.1459V33.388H29.1299V38.5H27.6719V33.388Z" fill="white"/>
</svg>
