<svg width="44" height="45" viewBox="0 0 44 45" fill="none" xmlns="http://www.w3.org/2000/svg">
<path fill-rule="evenodd" clip-rule="evenodd" d="M27.0142 0.5H6V25.7002V44.4999V44.5002H38.8V44.4999V25.7002V12.2858L27.0142 0.5ZM36.8 25.7002V14.1H25.2V2.5H8V25.7002H36.8Z" fill="#5C5C5C"/>
<path d="M20.2491 32.2L18.1881 38.5H16.6221L15.2361 34.234L13.8051 38.5H12.2481L10.1781 32.2H11.6901L13.1121 36.628L14.5971 32.2H15.9471L17.3871 36.664L18.8541 32.2H20.2491Z" fill="white"/>
<path d="M26.976 38.5L26.967 34.72L25.113 37.834H24.456L22.611 34.801V38.5H21.243V32.2H22.449L24.807 36.115L27.129 32.2H28.326L28.344 38.5H26.976Z" fill="white"/>
<path d="M31.4767 33.37V35.035H34.3927V36.205H31.4767V38.5H30.0187V32.2H34.7797V33.37H31.4767Z" fill="white"/>
</svg>
