<svg width="24" height="24" viewBox="0 0 24 24" fill="none" xmlns="http://www.w3.org/2000/svg">
<path d="M13 9C13 9.55228 12.5523 10 12 10C11.4477 10 11 9.55228 11 9C11 8.44772 11.4477 8 12 8C12.5523 8 13 8.44772 13 9Z" stroke="#4A4A4A" stroke-width="2"/>
<path d="M12.5356 21.0971C12.337 21.2998 12.1568 21.4785 12 21.631C11.8432 21.4785 11.663 21.2998 11.4644 21.0971C10.7353 20.3528 9.76426 19.2905 8.79543 18.019C6.82679 15.4351 5 12.1582 5 8.99999C5 5.134 8.13401 2 12 2C15.866 2 19 5.134 19 8.99999C19 12.1582 17.1732 15.4351 15.2046 18.019C14.2357 19.2905 13.2647 20.3528 12.5356 21.0971Z" stroke="#4A4A4A" stroke-width="2"/>
</svg>
