<svg width="227" height="43" viewBox="0 0 227 43" fill="none" xmlns="http://www.w3.org/2000/svg">
<path d="M0 24H2.35638V13.4743H13.9363V11.2457H2.35638V2.22857H15.6531V0H0V24Z" fill="black"/>
<path d="M35.6484 24H38.1394L28.5456 0H25.5833L15.9221 24H18.3458L20.9715 17.3829H33.0227L35.6484 24ZM21.8467 15.1543L26.9971 2.19429L32.1475 15.1543H21.8467Z" fill="black"/>
<path d="M42.3727 24H52.4378C56.208 24 59.204 21.4971 59.204 17.3829C59.204 13.7829 56.7803 12.1714 54.9289 11.8286C56.915 11.2457 58.6991 9.01714 58.6991 6.27429C58.6991 2.33143 55.9051 0 52.2022 0H42.3727V24ZM44.7291 10.7314V2.22857H51.9666C54.4913 2.22857 56.3427 3.73714 56.3427 6.48C56.3427 9.22286 54.4913 10.7314 51.9666 10.7314H44.7291ZM44.7291 21.7714V12.96H51.9666C54.8279 12.96 56.8476 14.4343 56.8476 17.3486C56.8476 20.2629 54.7942 21.7714 51.9329 21.7714H44.7291Z" fill="black"/>
<path d="M65.137 24H67.4934V13.8857H77.7605C78.7704 13.8857 79.2753 14.4 79.2753 15.4286V24H81.6317V15.4286C81.6317 13.0629 80.7565 12.1714 78.4001 12.1714C80.5545 11.28 81.9683 9.18857 81.9683 6.41143C81.9683 2.70857 78.905 0 74.7645 0H65.137V24ZM67.4934 11.6571V2.22857H74.4279C77.6595 2.22857 79.6119 3.90857 79.6119 6.75429C79.6119 9.77143 77.1209 11.6571 74.4279 11.6571H67.4934Z" fill="black"/>
<path d="M88.5259 24H90.8823V0H88.5259V24Z" fill="black"/>
<path d="M113.997 24H116.926L107.198 9.66857L116.791 0H113.661L100.431 13.3714V0H98.0751V24H100.431V16.5257L105.514 11.4171L113.997 24Z" fill="black"/>
<path d="M137.997 24H140.488L130.894 0H127.932L118.271 24H120.694L123.32 17.3829H135.371L137.997 24ZM124.195 15.1543L129.346 2.19429L134.496 15.1543H124.195Z" fill="black"/>
<path d="M173.489 0L165.275 22.2171L156.994 0H152.988V24H155.311V1.85143L163.592 24H166.857L175.071 1.95429V24H177.394V0H173.489Z" fill="black"/>
<path d="M201.36 0L192.91 21.3257L184.023 0H181.499L191.564 24H194.19L203.884 0H201.36Z" fill="black"/>
<path d="M224.071 24H227L217.272 9.66857L226.865 0H223.735L210.505 13.3714V0H208.149V24H210.505V16.5257L215.588 11.4171L224.071 24Z" fill="black"/>
<path d="M0.96 40H1.74V34.648H5.112V40H5.892V34H0.96V40ZM8.05547 42.4H8.83547V39.04C9.19547 39.7 10.0595 40.12 10.8395 40.12C12.3995 40.12 13.5155 38.92 13.5155 37C13.5155 35.08 12.3995 33.88 10.8395 33.88C10.0595 33.88 9.19547 34.3 8.83547 34.96V34H8.05547V42.4ZM10.7555 39.46C9.45947 39.46 8.83547 38.296 8.83547 37C8.83547 35.704 9.45947 34.54 10.7555 34.54H10.8155C12.0995 34.54 12.7235 35.704 12.7235 37C12.7235 38.296 12.0995 39.46 10.8155 39.46H10.7555ZM17.703 40.12C19.251 40.12 20.463 38.86 20.463 37C20.463 35.14 19.251 33.88 17.703 33.88C16.155 33.88 14.943 35.14 14.943 37C14.943 38.86 16.155 40.12 17.703 40.12ZM17.643 39.46C16.563 39.46 15.735 38.536 15.735 37C15.735 35.464 16.563 34.54 17.643 34.54H17.763C18.843 34.54 19.671 35.464 19.671 37C19.671 38.536 18.843 39.46 17.763 39.46H17.643ZM26.3384 34L23.0264 39.232V34H22.2464V40H23.3504L26.5544 34.864V40H27.3344V34H26.3384ZM32.6622 36.964C33.4182 36.7 33.7542 36.136 33.7542 35.5C33.7542 34.564 32.9622 33.88 31.5702 33.88C29.7102 33.88 29.1582 35.2 29.1222 35.92H29.9022C29.9742 35.26 30.3702 34.528 31.5702 34.528C32.3982 34.528 32.9742 34.888 32.9742 35.548C32.9742 36.184 32.4702 36.652 31.7382 36.652H30.8142V37.312H31.7622C32.5662 37.312 33.1062 37.636 33.1062 38.308C33.1062 39.052 32.3382 39.472 31.5222 39.472C30.4782 39.472 29.8542 39.1 29.7942 38.08H29.0262C29.1222 39.412 29.8782 40.12 31.5222 40.12C32.9022 40.12 33.8862 39.388 33.8862 38.332C33.8862 37.588 33.4782 37.12 32.6622 36.964ZM35.6991 40H38.3511C39.5991 40 40.4391 39.28 40.4391 38.32C40.4391 37.48 39.8271 37 39.2391 36.94C39.8631 36.76 40.2591 36.244 40.2591 35.524C40.2591 34.66 39.5991 34 38.3391 34H35.6991V40ZM36.4791 36.616V34.636H38.1231C39.0231 34.636 39.4791 34.984 39.4791 35.584C39.4791 36.22 39.0591 36.616 38.3991 36.616H36.4791ZM36.4791 39.364V37.276H38.3751C39.2751 37.276 39.6591 37.744 39.6591 38.26C39.6591 38.956 39.2391 39.364 38.3031 39.364H36.4791ZM44.6317 40.12C46.1797 40.12 47.3917 38.86 47.3917 37C47.3917 35.14 46.1797 33.88 44.6317 33.88C43.0837 33.88 41.8717 35.14 41.8717 37C41.8717 38.86 43.0837 40.12 44.6317 40.12ZM44.5717 39.46C43.4917 39.46 42.6637 38.536 42.6637 37C42.6637 35.464 43.4917 34.54 44.5717 34.54H44.6917C45.7717 34.54 46.5997 35.464 46.5997 37C46.5997 38.536 45.7717 39.46 44.6917 39.46H44.5717ZM53.9543 39.34V34H49.6463V35.284C49.6463 36.292 49.6463 37.6 49.5503 38.428C49.4663 39.112 49.2983 39.34 48.8063 39.34H48.2663V41.668H48.9863V40H54.2783V41.668H54.9983V39.34H53.9543ZM53.1743 39.34H50.0783C50.1983 39.136 50.2583 38.86 50.3063 38.428C50.3903 37.564 50.4023 36.328 50.4023 35.284V34.648H53.1743V39.34ZM58.7878 40.12C60.0838 40.12 60.9118 39.316 61.1278 38.08H60.3478C60.1918 38.848 59.6518 39.46 58.8478 39.46H58.7278C57.4198 39.46 56.8078 38.308 56.8078 37C56.8078 35.692 57.4198 34.54 58.7278 34.54H58.8478C59.6518 34.54 60.2158 35.116 60.3478 35.92H61.1278C61.0078 34.66 60.0838 33.88 58.7878 33.88C57.0118 33.88 56.0278 35.236 56.0278 37C56.0278 38.764 57.0118 40.12 58.7878 40.12ZM66.9676 34H62.0116V34.648H64.0996V40H64.8796V34.648H66.9676V34ZM68.3405 40H70.9925C72.2405 40 73.0805 39.28 73.0805 38.32C73.0805 37.48 72.4685 37 71.8805 36.94C72.5045 36.76 72.9005 36.244 72.9005 35.524C72.9005 34.66 72.2405 34 70.9805 34H68.3405V40ZM69.1205 36.616V34.636H70.7645C71.6645 34.636 72.1205 34.984 72.1205 35.584C72.1205 36.22 71.7005 36.616 71.0405 36.616H69.1205ZM69.1205 39.364V37.276H71.0165C71.9165 37.276 72.3005 37.744 72.3005 38.26C72.3005 38.956 71.8805 39.364 70.9445 39.364H69.1205ZM77.2732 40.12C78.8212 40.12 80.0332 38.86 80.0332 37C80.0332 35.14 78.8212 33.88 77.2732 33.88C75.7252 33.88 74.5132 35.14 74.5132 37C74.5132 38.86 75.7252 40.12 77.2732 40.12ZM77.2132 39.46C76.1332 39.46 75.3052 38.536 75.3052 37C75.3052 35.464 76.1332 34.54 77.2132 34.54H77.3332C78.4132 34.54 79.2412 35.464 79.2412 37C79.2412 38.536 78.4132 39.46 77.3332 39.46H77.2132ZM90.5166 34L88.4166 39.22L86.2806 34H85.0566V40H85.7766V34.672L87.9726 40H88.7886L90.9846 34.672V40H91.7406V34H90.5166ZM93.7661 40H94.5461V38.14C94.5461 37.78 94.6781 37.612 95.1581 37.612H97.7141V40H98.4941V34H96.0581C94.6541 34 93.8261 34.636 93.8261 35.788C93.8261 36.532 94.2101 36.976 94.6781 37.156C94.1261 37.156 93.7661 37.48 93.7661 38.08V40ZM95.8781 36.952C94.9781 36.952 94.6061 36.412 94.6061 35.824C94.6061 35.008 95.0981 34.636 95.9981 34.636H97.7141V36.952H95.8781ZM104.242 34H100.654V40H101.434V34.648H104.242V34ZM109.781 40H110.753L108.161 36.376L110.633 34H109.637L106.373 37.168V34H105.593V40H106.373V38.08L107.585 36.928L109.781 40ZM114.221 40.12C115.769 40.12 116.981 38.86 116.981 37C116.981 35.14 115.769 33.88 114.221 33.88C112.673 33.88 111.461 35.14 111.461 37C111.461 38.86 112.673 40.12 114.221 40.12ZM114.161 39.46C113.081 39.46 112.253 38.536 112.253 37C112.253 35.464 113.081 34.54 114.161 34.54H114.281C115.361 34.54 116.189 35.464 116.189 37C116.189 38.536 115.361 39.46 114.281 39.46H114.161ZM121.248 33.1C122.184 33.1 122.892 32.692 122.892 31.6H122.208C122.148 32.32 121.8 32.56 121.248 32.56C120.696 32.56 120.348 32.32 120.288 31.6H119.604C119.604 32.692 120.324 33.1 121.248 33.1ZM122.856 34L119.544 39.232V34H118.764V40H119.868L123.072 34.864V40H123.852V34H122.856ZM131.64 40.12C133.188 40.12 134.4 38.86 134.4 37C134.4 35.14 133.188 33.88 131.64 33.88C130.092 33.88 128.88 35.14 128.88 37C128.88 38.86 130.092 40.12 131.64 40.12ZM131.58 39.46C130.5 39.46 129.672 38.536 129.672 37C129.672 35.464 130.5 34.54 131.58 34.54H131.7C132.78 34.54 133.608 35.464 133.608 37C133.608 38.536 132.78 39.46 131.7 39.46H131.58ZM139.916 42.4H140.66V39.172C140.96 39.652 141.62 40.12 142.34 40.12C143.9 40.12 144.74 38.92 144.74 37C144.74 35.2 143.96 33.88 142.4 33.88C141.62 33.88 140.972 34.336 140.66 34.84V31.6H139.916V34.84C139.604 34.336 138.956 33.88 138.176 33.88C136.736 33.88 135.836 35.2 135.836 37C135.836 38.92 136.676 40.12 138.236 40.12C138.956 40.12 139.616 39.652 139.916 39.172V42.4ZM138.2 39.46C137.084 39.46 136.616 38.296 136.616 37C136.616 35.68 137.156 34.54 138.236 34.54H138.296C139.316 34.54 139.916 35.464 139.916 37C139.916 38.536 139.34 39.46 138.26 39.46H138.2ZM142.316 39.46C141.236 39.46 140.66 38.536 140.66 37C140.66 35.464 141.26 34.54 142.28 34.54H142.34C143.54 34.54 143.96 35.68 143.96 37C143.96 38.296 143.492 39.46 142.376 39.46H142.316ZM150.641 34L147.329 39.232V34H146.549V40H147.653L150.857 34.864V40H151.637V34H150.641ZM156.196 40.12C157.492 40.12 158.32 39.316 158.536 38.08H157.756C157.6 38.848 157.06 39.46 156.256 39.46H156.136C154.828 39.46 154.216 38.308 154.216 37C154.216 35.692 154.828 34.54 156.136 34.54H156.256C157.06 34.54 157.624 35.116 157.756 35.92H158.536C158.416 34.66 157.492 33.88 156.196 33.88C154.42 33.88 153.436 35.236 153.436 37C153.436 38.764 154.42 40.12 156.196 40.12ZM160.294 40H161.074V37.192H164.482V40H165.262V34H164.482V36.544H161.074V34H160.294V40ZM169.813 40.12C171.361 40.12 172.573 38.86 172.573 37C172.573 35.14 171.361 33.88 169.813 33.88C168.265 33.88 167.053 35.14 167.053 37C167.053 38.86 168.265 40.12 169.813 40.12ZM169.753 39.46C168.673 39.46 167.845 38.536 167.845 37C167.845 35.464 168.673 34.54 169.753 34.54H169.873C170.953 34.54 171.781 35.464 171.781 37C171.781 38.536 170.953 39.46 169.873 39.46H169.753ZM176.84 33.1C177.776 33.1 178.484 32.692 178.484 31.6H177.8C177.74 32.32 177.392 32.56 176.84 32.56C176.288 32.56 175.94 32.32 175.88 31.6H175.196C175.196 32.692 175.916 33.1 176.84 33.1ZM178.448 34L175.136 39.232V34H174.356V40H175.46L178.664 34.864V40H179.444V34H178.448ZM190.304 34L188.204 39.22L186.068 34H184.844V40H185.564V34.672L187.76 40H188.576L190.772 34.672V40H191.528V34H190.304ZM196.002 40.12C197.226 40.12 198.15 39.484 198.414 38.284H197.634C197.406 39.088 196.878 39.46 196.062 39.46H195.99C195.006 39.46 194.13 38.752 194.106 37.06H198.426V36.58C198.426 35.044 197.466 33.88 196.002 33.88C194.622 33.88 193.326 34.888 193.326 36.988C193.326 39.04 194.502 40.12 196.002 40.12ZM194.13 36.4C194.298 34.972 195.174 34.54 195.93 34.54H196.05C196.998 34.54 197.61 35.332 197.646 36.4H194.13ZM202.846 40.12C204.406 40.12 205.546 38.86 205.546 37.108C205.546 35.296 204.418 34.228 202.93 34.228C201.934 34.228 201.094 34.84 200.746 35.464C200.806 33.784 201.226 32.908 202.654 32.908H204.166C205.222 32.908 205.558 32.596 205.558 31.792V31.54H204.79V31.768C204.79 32.092 204.634 32.224 204.202 32.224H202.69C201.79 32.224 201.142 32.5 200.746 33.016C200.146 33.796 200.074 35.092 200.074 36.616C200.074 38.848 201.166 40.12 202.846 40.12ZM202.822 39.46C201.658 39.46 200.89 38.416 200.89 36.976C200.89 35.752 201.67 34.864 202.822 34.864H202.882C203.998 34.864 204.754 35.812 204.754 37.108C204.754 38.404 204.022 39.46 202.882 39.46H202.822ZM209.654 40.12C210.878 40.12 211.802 39.484 212.066 38.284H211.286C211.058 39.088 210.53 39.46 209.714 39.46H209.642C208.658 39.46 207.782 38.752 207.758 37.06H212.078V36.58C212.078 35.044 211.118 33.88 209.654 33.88C208.274 33.88 206.978 34.888 206.978 36.988C206.978 39.04 208.154 40.12 209.654 40.12ZM207.782 36.4C207.95 34.972 208.826 34.54 209.582 34.54H209.702C210.65 34.54 211.262 35.332 211.298 36.4H207.782ZM213.02 40H213.356C214.292 40 214.988 39.784 215.036 38.644C215.084 37.576 215.108 36.328 215.108 35.284V34.648H217.772V40H218.552V34H214.352V35.284C214.352 36.292 214.352 37.636 214.292 38.548C214.244 39.196 213.872 39.34 213.296 39.34H213.02V40ZM224.8 34L221.488 39.232V34H220.708V40H221.812L225.016 34.864V40H225.796V34H224.8Z" fill="black"/>
</svg>
