<svg width="100" height="100" viewBox="0 0 100 100" fill="none" xmlns="http://www.w3.org/2000/svg">
<path fill-rule="evenodd" clip-rule="evenodd" d="M30.8045 25.7813H18.0555C14.2202 25.7813 11.1111 28.8904 11.1111 32.7257V74.3924C11.1111 78.2277 14.2202 81.3368 18.0555 81.3368H81.9444C85.7797 81.3368 88.8888 78.2277 88.8888 74.3924V32.7257C88.8888 28.8904 85.7797 25.7813 81.9444 25.7813H69.1954L64.343 18.0174C63.5816 16.7991 62.2463 16.0591 60.8097 16.0591H39.1902C37.7536 16.0591 36.4183 16.7991 35.6569 18.0174L30.8045 25.7813ZM34.4791 17.2813C35.4943 15.6569 37.2747 14.6702 39.1902 14.6702H60.8097C62.7252 14.6702 64.5056 15.6569 65.5208 17.2813L69.9652 24.3924H81.9444C86.5468 24.3924 90.2777 28.1233 90.2777 32.7257V74.3924C90.2777 78.9948 86.5468 82.7257 81.9444 82.7257H18.0555C13.4531 82.7257 9.72217 78.9948 9.72217 74.3924V32.7257C9.72217 28.1233 13.4531 24.3924 18.0555 24.3924H30.0347L34.4791 17.2813ZM20.1605 29.8611C18.2429 29.8611 16.6883 31.4157 16.6883 33.3334V72.2222C16.6883 74.1399 18.2429 75.6945 20.1605 75.6945H79.8828C81.8004 75.6945 83.355 74.1399 83.355 72.2222V33.3334C83.355 31.4157 81.8004 29.8611 79.8828 29.8611H62.4999V28.4722H79.8828C82.5675 28.4722 84.7439 30.6486 84.7439 33.3334V72.2222C84.7439 74.907 82.5675 77.0834 79.8828 77.0834H20.1605C17.4758 77.0834 15.2994 74.907 15.2994 72.2222V33.3334C15.2994 30.6486 17.4758 28.4722 20.1605 28.4722H37.4999V29.8611H20.1605ZM41.6666 21.6146H58.3333C59.1003 21.6146 59.7222 22.2364 59.7222 23.0035C59.7222 23.7706 59.1003 24.3924 58.3333 24.3924H41.6666C40.8996 24.3924 40.2777 23.7706 40.2777 23.0035C40.2777 22.2364 40.8996 21.6146 41.6666 21.6146ZM38.8888 23.0035C38.8888 21.4694 40.1325 20.2257 41.6666 20.2257H58.3333C59.8674 20.2257 61.1111 21.4694 61.1111 23.0035C61.1111 24.5376 59.8674 25.7813 58.3333 25.7813H41.6666C40.1325 25.7813 38.8888 24.5376 38.8888 23.0035ZM49.9999 71.6146C60.7388 71.6146 69.4444 62.909 69.4444 52.1702C69.4444 41.4313 60.7388 32.7257 49.9999 32.7257C39.2611 32.7257 30.5555 41.4313 30.5555 52.1702C30.5555 62.909 39.2611 71.6146 49.9999 71.6146ZM49.9999 73.0035C61.5059 73.0035 70.8333 63.6761 70.8333 52.1702C70.8333 40.6642 61.5059 31.3368 49.9999 31.3368C38.494 31.3368 29.1666 40.6642 29.1666 52.1702C29.1666 63.6761 38.494 73.0035 49.9999 73.0035ZM79.1666 37.5868C79.1666 38.7374 78.2339 39.6702 77.0833 39.6702C75.9327 39.6702 74.9999 38.7374 74.9999 37.5868C74.9999 36.4362 75.9327 35.5035 77.0833 35.5035C78.2339 35.5035 79.1666 36.4362 79.1666 37.5868ZM80.5555 37.5868C80.5555 39.5045 79.0009 41.0591 77.0833 41.0591C75.1656 41.0591 73.6111 39.5045 73.6111 37.5868C73.6111 35.6692 75.1656 34.1146 77.0833 34.1146C79.0009 34.1146 80.5555 35.6692 80.5555 37.5868ZM49.9999 66.0591C57.6706 66.0591 63.8888 59.8408 63.8888 52.1702C63.8888 44.4995 57.6706 38.2813 49.9999 38.2813C42.3293 38.2813 36.1111 44.4995 36.1111 52.1702C36.1111 59.8408 42.3293 66.0591 49.9999 66.0591ZM49.9999 67.4479C58.4376 67.4479 65.2777 60.6079 65.2777 52.1702C65.2777 43.7325 58.4376 36.8924 49.9999 36.8924C41.5623 36.8924 34.7222 43.7325 34.7222 52.1702C34.7222 60.6079 41.5623 67.4479 49.9999 67.4479ZM57.6829 48.9878C58.1008 49.9967 58.3159 51.0781 58.3159 52.1702H59.7222C59.7222 51.7044 59.6887 51.2402 59.6225 50.7813C59.5071 49.9822 59.2924 49.1988 58.9821 48.4496C58.4935 47.2701 57.7774 46.1983 56.8746 45.2955C55.9718 44.3927 54.9 43.6766 53.7205 43.188C52.9713 42.8777 52.1879 42.663 51.3888 42.5477C50.9299 42.4814 50.4657 42.4479 49.9999 42.4479V43.8542C51.092 43.8542 52.1734 44.0693 53.1823 44.4872C54.1913 44.9051 55.108 45.5177 55.8802 46.2899C56.6525 47.0621 57.265 47.9788 57.6829 48.9878Z" fill="black"/>
</svg>
