<svg width="100" height="100" viewBox="0 0 100 100" fill="none" xmlns="http://www.w3.org/2000/svg">
<path fill-rule="evenodd" clip-rule="evenodd" d="M41.6666 11.9358H58.3333V14.7135H41.6666V11.9358ZM40.2777 14.7135V10.5469H59.7222V14.7135H65.2777H77.7777V86.9358H22.2222V14.7135H34.7222H40.2777ZM59.7222 16.1024H40.2777L36.1111 16.1024V21.658H63.8888V16.1024L59.7222 16.1024ZM23.6111 16.1024H34.7222V17.4913H24.9565V84.2448H75.0434V17.4913H65.2777V16.1024H76.3888V85.5469H23.6111V16.1024ZM26.3454 18.8802H34.7222V23.0469H65.2777V18.8802H73.6545V82.8559H26.3454V18.8802ZM33.3333 31.3802H41.6666V39.7135H33.3333V31.3802ZM31.9444 41.1024V29.9913H43.0555V41.1024H31.9444ZM41.6666 48.0469H33.3333V56.3802H41.6666V48.0469ZM31.9444 46.658V57.7691H43.0555V46.658H31.9444ZM33.3333 64.7135H41.6666V73.0469H33.3333V64.7135ZM31.9444 74.4358V63.3247H43.0555V74.4358H31.9444ZM66.6666 34.158H47.2222V36.9358H66.6666V34.158ZM45.8333 32.7691V38.3247H68.0555V32.7691H45.8333ZM47.2222 50.8247H66.6666V53.6024H47.2222V50.8247ZM45.8333 54.9913V49.4358H68.0555V54.9913H45.8333ZM66.6666 67.4913H47.2222V70.2691H66.6666V67.4913ZM45.8333 66.1024V71.658H68.0555V66.1024H45.8333Z" fill="black"/>
</svg>
