<svg width="100" height="100" viewBox="0 0 100 100" fill="none" xmlns="http://www.w3.org/2000/svg">
<path fill-rule="evenodd" clip-rule="evenodd" d="M47.2223 11.8272H52.7778C53.5449 11.8272 54.1667 12.4491 54.1667 13.2161V14.605H45.8334V13.2161C45.8334 12.4491 46.4552 11.8272 47.2223 11.8272ZM44.4445 14.605V13.2161C44.4445 11.682 45.6881 10.4384 47.2223 10.4384H52.7778C54.3119 10.4384 55.5556 11.682 55.5556 13.2161V14.605H91.6667V22.9384H87.5V72.9384H50.7162V82.7219C52.6761 83.0614 54.1667 84.7702 54.1667 86.8272C54.1667 89.1284 52.3012 90.9939 50 90.9939C47.6989 90.9939 45.8334 89.1284 45.8334 86.8272C45.8334 84.7551 47.346 83.0362 49.3273 82.7146V72.9384H12.5V22.9384H8.33337V14.605H44.4445ZM55.5556 15.9939H44.4445L9.72226 15.9939V21.5495H90.2778V15.9939L55.5556 15.9939ZM86.1111 22.9384V71.5495H13.8889V22.9384H86.1111ZM77.7778 35.4384V38.2161H58.3334V35.4384H77.7778ZM56.9445 39.605V34.0495H79.1667V39.605H56.9445ZM58.3334 46.5495H77.7778V49.3272H58.3334V46.5495ZM56.9445 50.7161V45.1606H79.1667V50.7161H56.9445ZM58.3334 57.6606V60.4384H77.7778V57.6606H58.3334ZM56.9445 56.2717V61.8272H79.1667V56.2717H56.9445ZM34.7223 46.5495L37.6144 32.965L37.6125 32.9646C37.1579 32.8679 36.7004 32.7944 36.2415 32.7439C33.8657 32.4825 31.4541 32.8379 29.2434 33.7869C26.6051 34.9195 24.3826 36.8419 22.8819 39.2896C21.3811 41.7373 20.6757 44.5899 20.8629 47.455C21.0501 50.32 22.1206 53.0566 23.9271 55.2882C25.7336 57.5199 28.1873 59.1367 30.9506 59.9164C33.7139 60.6961 36.6508 60.6003 39.3574 59.6421C42.0639 58.6839 44.407 56.9105 46.0642 54.5659C47.4527 52.6012 48.3025 50.3165 48.5415 47.9384C48.5878 47.4783 48.6112 47.0148 48.6112 46.5495H34.7223ZM47.1449 47.9384H33.0065L35.9507 34.11C33.8575 33.9033 31.7379 34.2275 29.7913 35.0632C27.4168 36.0825 25.4166 37.8127 24.0659 40.0156C22.7152 42.2185 22.0804 44.7859 22.2489 47.3644C22.4173 49.943 23.3808 52.4059 25.0066 54.4144C26.6325 56.4228 28.8408 57.878 31.3278 58.5797C33.8147 59.2815 36.458 59.1952 38.8939 58.3328C41.3298 57.4705 43.4385 55.8744 44.93 53.7642C46.1526 52.0343 46.9112 50.0287 47.1449 47.9384ZM47.7935 35.9237C49.2939 37.7838 50.2235 40.0269 50.4869 42.3829H39.7861L42.0506 31.9244C44.2975 32.6804 46.2931 34.0637 47.7935 35.9237ZM51.9532 43.7718C51.9532 43.3062 51.9298 42.8427 51.8836 42.3829C51.6148 39.7088 50.5744 37.159 48.8745 35.0517C47.1746 32.9444 44.9028 31.3879 42.3461 30.5594C41.9071 30.4171 41.4597 30.2963 41.0054 30.1979L41.0034 30.1975L38.0643 43.7718H51.9532ZM50 89.605C51.5342 89.605 52.7778 88.3614 52.7778 86.8272C52.7778 85.2931 51.5342 84.0495 50 84.0495C48.4659 84.0495 47.2223 85.2931 47.2223 86.8272C47.2223 88.3614 48.4659 89.605 50 89.605Z" fill="black"/>
</svg>
