<svg width="100" height="100" viewBox="0 0 100 100" fill="none" xmlns="http://www.w3.org/2000/svg">
<path fill-rule="evenodd" clip-rule="evenodd" d="M63.9106 18.0552V8.81006L22.2222 20.304V21.6146V23.0034V88.3246H77.7778V21.6146L23.6111 21.6146V21.3617L62.5217 10.6337V18.0552H63.9106ZM23.6111 23.0034V86.9357H76.3889V23.0034L59.7701 23.0034L23.6111 23.0034ZM72.2656 82.6823V27.0833H27.7344V82.6823H72.2656ZM26.3455 25.6944V84.0712H73.6545V25.6944H26.3455ZM62.5 64.5833V61.8055H37.5V64.5833H62.5ZM36.1111 60.4166V65.9722H63.8889V60.4166H36.1111ZM56.9445 49.3055V46.5278H43.0556V49.3055H56.9445ZM43.0556 50.6944H56.9445V53.4722H58.3333V50.6944H62.5V39.5833H58.3333V34.0278H41.6667V39.5833H37.5V50.6944H41.6667V53.4722H43.0556V50.6944ZM41.6667 49.3055V45.1389V40.9722H38.8889V49.3055H41.6667ZM43.0556 39.5833V45.1389H56.9445V39.5833H43.0556ZM58.3333 45.1389L58.3333 40.9722H61.1111V49.3055H58.3333L58.3333 45.1389ZM43.0556 38.1944V35.4166H56.9445V38.1944H43.0556ZM62.5 74.3055V71.5278H37.5V74.3055H62.5ZM36.1111 70.1389V75.6944H63.8889V70.1389H36.1111Z" fill="black"/>
</svg>
