<svg width="100" height="100" viewBox="0 0 100 100" fill="none" xmlns="http://www.w3.org/2000/svg">
<path fill-rule="evenodd" clip-rule="evenodd" d="M30.5549 15.9722V20.1497H31.9438V15.9722H30.5549ZM30.5658 24.3272V28.4749H19.4227V29.8638H30.5658L30.5658 40.9851H26.454V42.3739H30.5658L30.5658 53.4837H19.4227V54.8726H30.5658L30.5658 65.9613H26.4974V67.3502H30.5658V72.9383H31.9546V67.3502H43.0759L43.0759 79.8828H44.4648L44.4648 67.3502H55.5535V72.96H56.9424V67.3502H68.0413V72.9383H69.4302V67.3502H81.9444V65.9613H69.4302V54.8726H74.9566V53.4837H69.4302L69.4302 42.3739H81.9444V40.9851H69.4302V29.8638H73.6545V28.4749H69.4302V24.3272H68.0413V28.4749H56.9424V17.4045H55.5535V28.4749H44.4648V24.3272H43.0759V28.4749H31.9546V24.3272H30.5658ZM68.0413 54.8726V65.9613H56.9424V54.8726H68.0413ZM68.0413 42.3739L68.0413 53.4837H56.9424V42.3739H68.0413ZM68.0413 29.8638V40.9851H56.9424V29.8638H68.0413ZM55.5535 65.9613V54.8726H44.4648V65.9613H55.5535ZM43.0759 65.9613V54.8726H31.9546L31.9546 65.9613H43.0759ZM31.9546 53.4837L31.9546 42.3739H43.0759V53.4837H31.9546ZM31.9546 40.9851H43.0759V29.8638H31.9546L31.9546 40.9851ZM44.4648 53.4837V42.3739H55.5535V53.4837H44.4648ZM44.4648 40.9851H55.5535V29.8638H44.4648V40.9851ZM68.0522 77.1118V81.1118H69.4411V77.1118H68.0522Z" fill="black"/>
</svg>
