<svg width="100" height="100" viewBox="0 0 100 100" fill="none" xmlns="http://www.w3.org/2000/svg">
<path fill-rule="evenodd" clip-rule="evenodd" d="M46.2588 14.5178L77.7832 14.5682V34.0697L86.1111 34.0211V59.3059L71.8364 74.306H23.6002V46.8894L38.6544 35.4166L41.4541 35.4168L42.8149 17.6632L46.2588 14.5178ZM42.7918 36.8057V49.3167H62.5325V46.9271L72.9102 37.4435V36.8057H42.7918ZM74.2991 36.1331V36.2413L76.3943 34.4485V17.136L75.4235 18.2664L74.2991 36.1331ZM74.426 17.296L75.579 15.9536L46.7967 15.9076L45.2764 17.296H74.426ZM44.1295 18.6849H74.0055L72.9526 35.4168H42.8471L44.1295 18.6849ZM77.347 35.4612L74.0647 38.2699L65.0163 46.5388H71.2717L83.5977 35.4247L77.347 35.4612ZM84.7222 36.2808L72.233 47.5421V71.8745L84.7222 58.7506V36.2808ZM70.8441 72.9171V47.9277H63.9214V72.9171H70.8441ZM62.5325 72.9171V59.0281H33.3333V72.9171H62.5325ZM31.9444 72.9171V47.9277H24.9891V72.9171H31.9444ZM26.3516 46.5388H32.3846L41.4029 38.914V36.8057L39.1233 36.8055L26.3516 46.5388ZM41.4029 40.7328L33.3333 47.5555V56.7976L41.4029 49.6972V40.7328ZM42.3594 50.7056L34.4793 57.6392H62.5325V50.7056H42.3594Z" fill="black"/>
<path fill-rule="evenodd" clip-rule="evenodd" d="M15.2777 18.2084L12.8561 20.63L11.874 19.6479L14.4992 17.0228C15.3127 16.2092 16.6318 16.2092 17.4454 17.0228L20.0706 19.6479L19.0885 20.63L16.6666 18.2082L16.6666 79.8455C18.8172 80.1531 20.5138 81.8684 20.7929 84.028H77.2011L74.7795 81.6064L75.7616 80.6243L78.3867 83.2494C79.2003 84.063 79.2003 85.3821 78.3867 86.1957L75.7616 88.8208L74.7795 87.8387L77.2013 85.4169H20.7743C20.4097 87.7408 18.3985 89.5185 15.9722 89.5185C13.2875 89.5185 11.1111 87.3421 11.1111 84.6574C11.1111 82.2084 12.922 80.1824 15.2777 79.8455L15.2777 18.2084ZM19.4444 84.6626C19.4416 86.5778 17.8881 88.1296 15.9722 88.1296C14.0545 88.1296 12.5 86.575 12.5 84.6574C12.5 82.7397 14.0545 81.1851 15.9722 81.1851C17.8881 81.1851 19.4416 82.7369 19.4444 84.6522V84.6626Z" fill="black"/>
</svg>
