<svg width="100" height="100" viewBox="0 0 100 100" fill="none" xmlns="http://www.w3.org/2000/svg">
<path fill-rule="evenodd" clip-rule="evenodd" d="M18.0555 18.75H87.5V77.0833H18.0555V18.75ZM16.6666 78.4722V17.3611H88.8889V78.4722H16.6666ZM15.2778 22.9383H11.1111V84.0495H83.3333V79.8611H81.9444V82.6606H12.5V24.3272H15.2778V22.9383ZM81.9444 24.3055H23.6111V71.5278H81.9444V24.3055ZM22.2222 22.9166V72.9166H83.3333V22.9166H22.2222ZM50.5771 31.3368H38.8889V41.0214C38.6621 40.989 38.4302 40.9722 38.1944 40.9722C35.5097 40.9722 33.3333 43.1486 33.3333 45.8333C33.3333 47.7725 34.4688 49.4464 36.1111 50.2266V60.4166H38.8889V61.8055C38.8889 63.3396 40.1325 64.5833 41.6666 64.5833C43.2008 64.5833 44.4444 63.3396 44.4444 61.8055V60.4166H63.8889V61.8055C63.8889 63.3396 65.1325 64.5833 66.6666 64.5833C68.2008 64.5833 69.4444 63.3396 69.4444 61.8055V60.4166H72.2222V54.8611V53.4722V52.0833V41.0156H55.8681L50.5771 31.3368ZM69.4444 59.0277H63.8889H44.4444H38.8889H37.5V49.3488L36.707 48.9721C35.5307 48.4133 34.7222 47.2163 34.7222 45.8333C34.7222 43.9156 36.2768 42.3611 38.1944 42.3611C40.1043 42.3611 41.6541 43.9031 41.6666 45.8099L41.6666 45.8216V52.0833V54.8611H70.8333V59.0277H69.4444ZM65.2777 61.8055V60.4166H68.0555V61.8055C68.0555 62.5726 67.4337 63.1944 66.6666 63.1944C65.8996 63.1944 65.2777 62.5726 65.2777 61.8055ZM40.2778 60.4166V61.8055C40.2778 62.5726 40.8996 63.1944 41.6666 63.1944C42.4337 63.1944 43.0555 62.5726 43.0555 61.8055V60.4166H40.2778ZM43.0554 45.8008C43.0428 43.8754 41.9109 42.2158 40.2778 41.44V32.7257H49.7535L55.0445 42.4045H70.8333V49.6771C70.4247 49.4408 69.9504 49.3055 69.4444 49.3055H44.4444C43.9384 49.3055 43.4641 49.4408 43.0555 49.6772L43.0554 45.8008ZM43.0555 53.4722V52.0833C43.0555 51.3162 43.6774 50.6944 44.4444 50.6944H69.4444C70.2115 50.6944 70.8333 51.3162 70.8333 52.0833V53.4722H43.0555Z" fill="black"/>
</svg>
