<svg width="100" height="100" viewBox="0 0 100 100" fill="none" xmlns="http://www.w3.org/2000/svg">
<path fill-rule="evenodd" clip-rule="evenodd" d="M26.3889 81.2283H79.1667V29.8394H61.1545V11.7838H26.3889V81.2283ZM62.5434 28.4505H78.5914L62.5434 12.4025V28.4505ZM80.5556 28.4505L62.5434 10.4384V10.4167H62.5217L62.5 10.395H25V82.6172H80.5556L80.5556 29.8394L80.5556 28.4505ZM75 42.3394H30.5556V70.1172H75V42.3394ZM29.1667 40.9505V71.5061H76.3889V40.9505H29.1667ZM23.6111 14.5833H19.4445V88.1944H76.3889V84.0061H75V86.8055H20.8333V15.9722H23.6111V14.5833ZM68.8814 53.3143H70.1647C70.0999 51.9143 69.6203 50.8578 68.7258 50.1449C67.8314 49.4189 66.6323 49.056 65.1286 49.056C63.6379 49.056 62.4582 49.3995 61.5897 50.0865C60.7342 50.7606 60.3064 51.681 60.3064 52.8477C60.3064 53.3662 60.3971 53.8199 60.5786 54.2088C60.7601 54.5976 60.961 54.9088 61.1814 55.1421C61.4147 55.3625 61.7647 55.5699 62.2314 55.7643C62.6981 55.9588 63.0675 56.0949 63.3397 56.1726C63.6249 56.2504 64.0592 56.3541 64.6425 56.4838C66.4573 56.9115 67.6888 57.3134 68.3369 57.6893C68.9981 58.0523 69.3286 58.668 69.3286 59.5365C69.3286 60.431 68.9851 61.131 68.298 61.6365C67.611 62.1421 66.6712 62.3949 65.4786 62.3949C64.1175 62.3949 63.048 62.0773 62.2703 61.4421C61.5055 60.8069 61.1231 59.8606 61.1231 58.6032H59.8592V58.7199C59.8592 60.1977 60.3453 61.3578 61.3175 62.2004C62.3027 63.043 63.6573 63.4643 65.3814 63.4643C66.3018 63.4643 67.1379 63.3412 67.8897 63.0949C68.6416 62.8486 69.2768 62.4078 69.7953 61.7727C70.3268 61.1375 70.5925 60.3467 70.5925 59.4004C70.5925 59.0115 70.5406 58.6615 70.4369 58.3504C70.3462 58.0264 70.2295 57.7477 70.0869 57.5143C69.9443 57.281 69.7369 57.0671 69.4647 56.8727C69.1925 56.6782 68.9268 56.5162 68.6675 56.3865C68.4212 56.2569 68.0906 56.1273 67.6758 55.9977C67.261 55.868 66.8916 55.7643 66.5675 55.6865C66.2434 55.6088 65.8221 55.5115 65.3036 55.3949C64.824 55.2912 64.474 55.2134 64.2536 55.1615C64.0332 55.0967 63.7416 55.0125 63.3786 54.9088C63.0156 54.7921 62.7499 54.6819 62.5814 54.5782C62.4258 54.4615 62.2508 54.3189 62.0564 54.1504C61.8749 53.9819 61.7453 53.7875 61.6675 53.5671C61.6027 53.3338 61.5703 53.068 61.5703 52.7699C61.5703 51.9402 61.8749 51.2986 62.4842 50.8449C63.0934 50.3912 63.9425 50.1643 65.0314 50.1643C66.1851 50.1643 67.099 50.4365 67.773 50.981C68.4601 51.5125 68.8295 52.2902 68.8814 53.3143ZM46.7814 49.3282H51.7981C53.8722 49.3282 55.4212 49.931 56.4453 51.1365C57.4694 52.3291 57.9814 53.9495 57.9814 55.9977C57.9814 58.0976 57.4823 59.8217 56.4842 61.1699C55.486 62.5051 53.9629 63.1726 51.9147 63.1726H46.7814V49.3282ZM48.1036 50.456V62.0449H51.5842C54.9675 62.0449 56.6592 60.0551 56.6592 56.0754C56.6592 54.3125 56.2379 52.9384 55.3953 51.9532C54.5657 50.9551 53.3666 50.456 51.7981 50.456H48.1036ZM35.1796 53.9365C35.1926 52.5365 35.5879 51.4477 36.3657 50.6699C37.1435 49.8921 38.2194 49.5032 39.5935 49.5032C40.812 49.5032 41.7972 49.8273 42.5491 50.4754C43.3009 51.1106 43.6768 51.9467 43.6768 52.9838C43.6768 53.7227 43.4694 54.3578 43.0546 54.8893C42.6528 55.4208 42.0953 55.7708 41.3824 55.9393C42.2768 56.1208 42.9639 56.5032 43.4435 57.0865C43.9231 57.6569 44.1629 58.3828 44.1629 59.2643C44.1629 60.5217 43.7287 61.5393 42.8602 62.3171C42.0046 63.0949 40.8768 63.4838 39.4768 63.4838C38.0639 63.4838 36.9361 63.0949 36.0935 62.3171C35.2639 61.5264 34.8491 60.4699 34.8491 59.1476V58.8365H36.0352V58.8949C36.0352 59.9967 36.3398 60.8588 36.9491 61.481C37.5713 62.1032 38.4268 62.4143 39.5157 62.4143C40.5139 62.4143 41.3305 62.1356 41.9657 61.5782C42.6009 61.0078 42.9185 60.2819 42.9185 59.4004C42.9185 58.3764 42.5815 57.6439 41.9074 57.2032C41.2463 56.7625 40.3907 56.5421 39.3407 56.5421C39.0944 56.5421 38.8741 56.5486 38.6796 56.5615V55.531H39.1852C39.8592 55.531 40.4037 55.4597 40.8185 55.3171C41.8944 54.9152 42.4324 54.1569 42.4324 53.0421C42.4324 52.2773 42.1666 51.668 41.6352 51.2143C41.1166 50.7606 40.4166 50.5338 39.5352 50.5338C38.55 50.5338 37.7787 50.8319 37.2213 51.4282C36.6639 52.0115 36.3657 52.8476 36.3268 53.9365H35.1796Z" fill="black"/>
</svg>
