<svg width="100" height="100" viewBox="0 0 100 100" fill="none" xmlns="http://www.w3.org/2000/svg">
<path fill-rule="evenodd" clip-rule="evenodd" d="M26.3889 81.2283H79.1667V29.8395H61.1545V11.7839H26.3889V81.2283ZM62.5434 28.4506H78.5914L62.5434 12.4026V28.4506ZM80.5556 28.4506L62.5434 10.4384V10.4167H62.5217L62.5 10.395H25V82.6172H80.5556L80.5556 29.8395L80.5556 28.4506ZM75 42.3395H30.5556V70.1172H75V42.3395ZM29.1667 40.9506V71.5061H76.3889V40.9506H29.1667ZM23.6111 14.5834H19.4445V88.1945H76.3889V84.0061H75V86.8056H20.8333V15.9723H23.6111V14.5834ZM71.5827 61.8056V55.7723H66.516V56.7056H70.5827C70.5827 57.0945 70.5605 57.4445 70.516 57.7556C70.3605 58.7778 69.9104 59.6001 69.166 60.2223C68.4327 60.8334 67.5382 61.1389 66.4827 61.1389C65.1271 61.1389 64.0327 60.6723 63.1993 59.7389C62.3771 58.7945 61.966 57.5389 61.966 55.9723C61.966 54.3612 62.3771 53.0723 63.1993 52.1056C64.0216 51.1389 65.1216 50.6556 66.4993 50.6556C67.4549 50.6556 68.2882 50.9223 68.9993 51.4556C69.7216 51.9778 70.166 52.6945 70.3327 53.6056H71.416C71.2271 52.3834 70.6771 51.4278 69.766 50.7389C68.8549 50.0389 67.7605 49.6889 66.4827 49.6889C64.8049 49.6889 63.4438 50.2723 62.3993 51.4389C61.366 52.6056 60.8493 54.1223 60.8493 55.9889C60.8493 57.8001 61.366 59.2723 62.3993 60.4056C63.4327 61.5278 64.7771 62.0889 66.4327 62.0889C67.3993 62.0889 68.2438 61.8723 68.966 61.4389C69.6993 60.9945 70.2438 60.3778 70.5993 59.5889L70.6327 60.1223L70.8327 61.8056H71.5827ZM34.1861 49.9389H38.4861C40.2638 49.9389 41.5916 50.4556 42.4694 51.4889C43.3472 52.5112 43.7861 53.9001 43.7861 55.6556C43.7861 57.4556 43.3583 58.9334 42.5027 60.0889C41.6472 61.2334 40.3416 61.8056 38.5861 61.8056H34.1861V49.9389ZM35.3194 50.9056V60.8389H38.3027C41.2027 60.8389 42.6527 59.1334 42.6527 55.7223C42.6527 54.2112 42.2916 53.0334 41.5694 52.1889C40.8583 51.3334 39.8305 50.9056 38.4861 50.9056H35.3194ZM59.8122 49.9389L56.5289 61.8056H55.3122L52.8956 53.4556C52.5844 52.3556 52.3844 51.5389 52.2956 51.0056C52.2067 51.2945 52.09 51.7112 51.9456 52.2556C51.8122 52.8001 51.7122 53.1889 51.6456 53.4223L49.2789 61.8056H48.0456L44.7622 49.9389H45.9456L48.1622 58.1723C48.3067 58.7167 48.49 59.5334 48.7122 60.6223C48.8344 59.9334 49.0345 59.1167 49.3122 58.1723L51.6622 49.9389H52.9456L55.3456 58.2889C55.6456 59.3223 55.8344 60.1001 55.9122 60.6223C55.9567 60.4445 56.0345 60.0889 56.1456 59.5556C56.2678 59.0112 56.3678 58.5945 56.4456 58.3056L58.6789 49.9389H59.8122Z" fill="black"/>
</svg>
