<svg width="100" height="100" viewBox="0 0 100 100" fill="none" xmlns="http://www.w3.org/2000/svg">
<path fill-rule="evenodd" clip-rule="evenodd" d="M79.1667 86.849V32.6877H58.3333V11.849H26.3889V86.849H79.1667ZM80.5556 32.6877V31.2988V31.2934L59.7222 10.4601H58.3333H25V88.2379H80.5556V32.6877ZM78.5968 31.2988L59.7222 12.4243V31.2988H78.5968ZM51.3889 18.7934H33.3333V21.5712H51.3889V18.7934ZM31.9444 17.4045V22.9601H52.7778V17.4045H31.9444ZM33.3333 28.5156H51.3889V31.2934H33.3333V28.5156ZM31.9444 32.6823V27.1267H52.7778V32.6823H31.9444ZM49.9963 75.4672V55.3223L44.4444 51.3156V42.9551L47.2186 40.953V47.1158L52.8475 50.8684L58.4764 47.1158V40.953L61.2505 42.9551V51.3156L55.6986 55.3224V75.4672L53.6855 77.4803H52.0094L49.9963 75.4672ZM43.0556 42.2446V52.0261L48.6074 56.0328V76.0425L51.4341 78.8692H54.2608L57.0874 76.0425V56.0328L62.6394 52.0261V42.2446L57.0875 38.2379V46.3725L52.8475 49.1992L48.6075 46.3725V38.2379L43.0556 42.2446ZM45.2558 75.4853C42.6849 74.3072 40.4267 72.5416 38.6631 70.3309C36.8996 68.1201 35.6799 65.526 35.1026 62.7576C34.5252 59.9892 34.6061 57.1238 35.339 54.3924C36.0718 51.661 37.436 49.14 39.3216 47.0323L40.4156 48.0111C38.6833 49.9474 37.43 52.2635 36.7567 54.7728C36.0835 57.2822 36.0091 59.9145 36.5395 62.4579C37.07 65.0013 38.1905 67.3845 39.8107 69.4155C41.4309 71.4465 43.5055 73.0685 45.8674 74.1509L45.2558 75.4853ZM66.892 70.3316C65.1223 72.5498 62.8548 74.3196 60.2733 75.4976L59.6639 74.1622C62.0356 73.08 64.1187 71.454 65.7445 69.4162C67.3702 67.3784 68.4928 64.9861 69.0212 62.4333C69.5495 59.8805 69.4687 57.2392 68.7854 54.7235C68.1021 52.2077 66.8355 49.8885 65.0883 47.9538L66.1777 46.97C68.0795 49.0759 69.4582 51.6003 70.202 54.3387C70.9458 57.077 71.0337 59.9521 70.4586 62.7308C69.8835 65.5095 68.6616 68.1135 66.892 70.3316Z" fill="black"/>
</svg>
