<svg width="44" height="45" viewBox="0 0 44 45" fill="none" xmlns="http://www.w3.org/2000/svg">
<path fill-rule="evenodd" clip-rule="evenodd" d="M27.0142 0.5H6V25.7002V44.4999V44.5002H38.8V44.4999V25.7002V12.2858L27.0142 0.5ZM36.8 25.7002V14.1H25.2V2.5H8V25.7002H36.8Z" fill="#00945F"/>
<path d="M15.7549 38.608C15.1129 38.608 14.5309 38.47 14.0089 38.194C13.4929 37.912 13.0849 37.525 12.7849 37.033C12.4909 36.535 12.3439 35.974 12.3439 35.35C12.3439 34.726 12.4909 34.168 12.7849 33.676C13.0849 33.178 13.4929 32.791 14.0089 32.515C14.5309 32.233 15.1159 32.092 15.7639 32.092C16.3099 32.092 16.8019 32.188 17.2399 32.38C17.6839 32.572 18.0559 32.848 18.3559 33.208L17.4199 34.072C16.9939 33.58 16.4659 33.334 15.8359 33.334C15.4459 33.334 15.0979 33.421 14.7919 33.595C14.4859 33.763 14.2459 34 14.0719 34.306C13.9039 34.612 13.8199 34.96 13.8199 35.35C13.8199 35.74 13.9039 36.088 14.0719 36.394C14.2459 36.7 14.4859 36.94 14.7919 37.114C15.0979 37.282 15.4459 37.366 15.8359 37.366C16.4659 37.366 16.9939 37.117 17.4199 36.619L18.3559 37.483C18.0559 37.849 17.6839 38.128 17.2399 38.32C16.7959 38.512 16.3009 38.608 15.7549 38.608Z" fill="white"/>
<path d="M23.5345 38.5L22.3195 36.745H22.2475H20.9785V38.5H19.5205V32.2H22.2475C22.8055 32.2 23.2885 32.293 23.6965 32.479C24.1105 32.665 24.4285 32.929 24.6505 33.271C24.8725 33.613 24.9835 34.018 24.9835 34.486C24.9835 34.954 24.8695 35.359 24.6415 35.701C24.4195 36.037 24.1015 36.295 23.6875 36.475L25.1005 38.5H23.5345ZM23.5075 34.486C23.5075 34.132 23.3935 33.862 23.1655 33.676C22.9375 33.484 22.6045 33.388 22.1665 33.388H20.9785V35.584H22.1665C22.6045 35.584 22.9375 35.488 23.1655 35.296C23.3935 35.104 23.5075 34.834 23.5075 34.486Z" fill="white"/>
<path d="M26.3186 32.2H29.1806C29.8646 32.2 30.4676 32.332 30.9896 32.596C31.5176 32.854 31.9256 33.22 32.2136 33.694C32.5076 34.168 32.6546 34.72 32.6546 35.35C32.6546 35.98 32.5076 36.532 32.2136 37.006C31.9256 37.48 31.5176 37.849 30.9896 38.113C30.4676 38.371 29.8646 38.5 29.1806 38.5H26.3186V32.2ZM29.1086 37.303C29.7386 37.303 30.2396 37.129 30.6116 36.781C30.9896 36.427 31.1786 35.95 31.1786 35.35C31.1786 34.75 30.9896 34.276 30.6116 33.928C30.2396 33.574 29.7386 33.397 29.1086 33.397H27.7766V37.303H29.1086Z" fill="white"/>
</svg>
