<svg width="44" height="45" viewBox="0 0 44 45" fill="none" xmlns="http://www.w3.org/2000/svg">
<path fill-rule="evenodd" clip-rule="evenodd" d="M27.0142 0.5H6V25.7002V44.4999V44.5002H38.8V44.4999V25.7002V12.2858L27.0142 0.5ZM36.8 25.7002V14.1H25.2V2.5H8V25.7002H36.8Z" fill="#20B666"/>
<path d="M19.5018 35.251H20.8338V37.807C20.4918 38.065 20.0958 38.263 19.6458 38.401C19.1958 38.539 18.7428 38.608 18.2868 38.608C17.6328 38.608 17.0448 38.47 16.5228 38.194C16.0008 37.912 15.5898 37.525 15.2898 37.033C14.9958 36.535 14.8488 35.974 14.8488 35.35C14.8488 34.726 14.9958 34.168 15.2898 33.676C15.5898 33.178 16.0038 32.791 16.5318 32.515C17.0598 32.233 17.6538 32.092 18.3138 32.092C18.8658 32.092 19.3668 32.185 19.8168 32.371C20.2668 32.557 20.6448 32.827 20.9508 33.181L20.0148 34.045C19.5648 33.571 19.0218 33.334 18.3858 33.334C17.9838 33.334 17.6268 33.418 17.3148 33.586C17.0028 33.754 16.7598 33.991 16.5858 34.297C16.4118 34.603 16.3248 34.954 16.3248 35.35C16.3248 35.74 16.4118 36.088 16.5858 36.394C16.7598 36.7 16.9998 36.94 17.3058 37.114C17.6178 37.282 17.9718 37.366 18.3678 37.366C18.7878 37.366 19.1658 37.276 19.5018 37.096V35.251Z" fill="white"/>
<path d="M22.3681 32.2H23.8261V38.5H22.3681V32.2Z" fill="white"/>
<path d="M26.9592 33.37V35.035H29.8752V36.205H26.9592V38.5H25.5012V32.2H30.2622V33.37H26.9592Z" fill="white"/>
</svg>
