<svg width="44" height="45" viewBox="0 0 44 45" fill="none" xmlns="http://www.w3.org/2000/svg">
<path fill-rule="evenodd" clip-rule="evenodd" d="M27.0142 0.5H6V25.7002V44.4999V44.5002H38.8V44.4999V25.7002V12.2858L27.0142 0.5ZM36.8 25.7002V14.1H25.2V2.5H8V25.7002H36.8Z" fill="#82B927"/>
<path d="M15.0259 38.608C14.5999 38.608 14.2069 38.53 13.8469 38.374C13.4929 38.212 13.2019 37.984 12.9739 37.69L13.7839 36.718C14.1259 37.18 14.5159 37.411 14.9539 37.411C15.5479 37.411 15.8449 37.063 15.8449 36.367V33.37H13.6309V32.2H17.2939V36.286C17.2939 37.06 17.1019 37.642 16.7179 38.032C16.3339 38.416 15.7699 38.608 15.0259 38.608Z" fill="white"/>
<path d="M21.641 32.2C22.199 32.2 22.682 32.293 23.09 32.479C23.504 32.665 23.822 32.929 24.044 33.271C24.266 33.613 24.377 34.018 24.377 34.486C24.377 34.948 24.266 35.353 24.044 35.701C23.822 36.043 23.504 36.307 23.09 36.493C22.682 36.673 22.199 36.763 21.641 36.763H20.372V38.5H18.914V32.2H21.641ZM21.56 35.575C21.998 35.575 22.331 35.482 22.559 35.296C22.787 35.104 22.901 34.834 22.901 34.486C22.901 34.132 22.787 33.862 22.559 33.676C22.331 33.484 21.998 33.388 21.56 33.388H20.372V35.575H21.56Z" fill="white"/>
<path d="M29.9428 35.251H31.2748V37.807C30.9328 38.065 30.5368 38.263 30.0868 38.401C29.6368 38.539 29.1838 38.608 28.7278 38.608C28.0738 38.608 27.4858 38.47 26.9638 38.194C26.4418 37.912 26.0308 37.525 25.7308 37.033C25.4368 36.535 25.2898 35.974 25.2898 35.35C25.2898 34.726 25.4368 34.168 25.7308 33.676C26.0308 33.178 26.4448 32.791 26.9728 32.515C27.5008 32.233 28.0948 32.092 28.7548 32.092C29.3068 32.092 29.8078 32.185 30.2578 32.371C30.7078 32.557 31.0858 32.827 31.3918 33.181L30.4558 34.045C30.0058 33.571 29.4628 33.334 28.8268 33.334C28.4248 33.334 28.0678 33.418 27.7558 33.586C27.4438 33.754 27.2008 33.991 27.0268 34.297C26.8528 34.603 26.7658 34.954 26.7658 35.35C26.7658 35.74 26.8528 36.088 27.0268 36.394C27.2008 36.7 27.4408 36.94 27.7468 37.114C28.0588 37.282 28.4128 37.366 28.8088 37.366C29.2288 37.366 29.6068 37.276 29.9428 37.096V35.251Z" fill="white"/>
</svg>
