<svg width="44" height="45" viewBox="0 0 44 45" fill="none" xmlns="http://www.w3.org/2000/svg">
<path fill-rule="evenodd" clip-rule="evenodd" d="M27.0142 0.5H6V25.7002V44.4999V44.5002H38.8V44.4999V25.7002V12.2858L27.0142 0.5ZM36.8 25.7002V14.1H25.2V2.5H8V25.7002H36.8Z" fill="#0782E1"/>
<path d="M17.9939 38.5L17.9849 34.72L16.1309 37.834H15.4739L13.6289 34.801V38.5H12.2609V32.2H13.4669L15.8249 36.115L18.1469 32.2H19.3439L19.3619 38.5H17.9939Z" fill="white"/>
<path d="M23.3316 36.025L22.4856 36.907V38.5H21.0366V32.2H22.4856V35.143L25.2756 32.2H26.8956L24.2856 35.008L27.0486 38.5H25.3476L23.3316 36.025Z" fill="white"/>
<path d="M33.5753 32.2L30.8483 38.5H29.4083L26.6903 32.2H28.2653L30.1823 36.7L32.1263 32.2H33.5753Z" fill="white"/>
</svg>
