<svg width="44" height="45" viewBox="0 0 44 45" fill="none" xmlns="http://www.w3.org/2000/svg">
<path fill-rule="evenodd" clip-rule="evenodd" d="M27.0142 0.5H6V25.7002V44.4999V44.5002H38.8V44.4999V25.7002V12.2858L27.0142 0.5ZM36.8 25.7002V14.1H25.2V2.5H8V25.7002H36.8Z" fill="#598B08"/>
<path d="M15.4361 32.2C15.9941 32.2 16.4771 32.293 16.8851 32.479C17.2991 32.665 17.6171 32.929 17.8391 33.271C18.0611 33.613 18.1721 34.018 18.1721 34.486C18.1721 34.948 18.0611 35.353 17.8391 35.701C17.6171 36.043 17.2991 36.307 16.8851 36.493C16.4771 36.673 15.9941 36.763 15.4361 36.763H14.1671V38.5H12.7091V32.2H15.4361ZM15.3551 35.575C15.7931 35.575 16.1261 35.482 16.3541 35.296C16.5821 35.104 16.6961 34.834 16.6961 34.486C16.6961 34.132 16.5821 33.862 16.3541 33.676C16.1261 33.484 15.7931 33.388 15.3551 33.388H14.1671V35.575H15.3551Z" fill="white"/>
<path d="M25.171 32.2V38.5H23.974L20.833 34.675V38.5H19.393V32.2H20.599L23.731 36.025V32.2H25.171Z" fill="white"/>
<path d="M31.0986 35.251H32.4306V37.807C32.0886 38.065 31.6926 38.263 31.2426 38.401C30.7926 38.539 30.3396 38.608 29.8836 38.608C29.2296 38.608 28.6416 38.47 28.1196 38.194C27.5976 37.912 27.1866 37.525 26.8866 37.033C26.5926 36.535 26.4456 35.974 26.4456 35.35C26.4456 34.726 26.5926 34.168 26.8866 33.676C27.1866 33.178 27.6006 32.791 28.1286 32.515C28.6566 32.233 29.2506 32.092 29.9106 32.092C30.4626 32.092 30.9636 32.185 31.4136 32.371C31.8636 32.557 32.2416 32.827 32.5476 33.181L31.6116 34.045C31.1616 33.571 30.6186 33.334 29.9826 33.334C29.5806 33.334 29.2236 33.418 28.9116 33.586C28.5996 33.754 28.3566 33.991 28.1826 34.297C28.0086 34.603 27.9216 34.954 27.9216 35.35C27.9216 35.74 28.0086 36.088 28.1826 36.394C28.3566 36.7 28.5966 36.94 28.9026 37.114C29.2146 37.282 29.5686 37.366 29.9646 37.366C30.3846 37.366 30.7626 37.276 31.0986 37.096V35.251Z" fill="white"/>
</svg>
