<svg width="44" height="45" viewBox="0 0 44 45" fill="none" xmlns="http://www.w3.org/2000/svg">
<path fill-rule="evenodd" clip-rule="evenodd" d="M27.0142 0.5H6V25.7002V44.4999V44.5002H38.8V44.4999V25.7002V12.2858L27.0142 0.5ZM36.8 25.7002V14.1H25.2V2.5H8V25.7002H36.8Z" fill="#28B7F4"/>
<path d="M19.4055 32.9L17.5735 38.5H16.1815L14.9495 34.708L13.6775 38.5H12.2935L10.4535 32.9H11.7975L13.0615 36.836L14.3815 32.9H15.5815L16.8615 36.868L18.1655 32.9H19.4055Z" fill="white"/>
<path d="M23.7895 37.3H21.1895L20.6935 38.5H19.3655L21.8615 32.9H23.1415L25.6455 38.5H24.2855L23.7895 37.3ZM23.3815 36.316L22.4935 34.172L21.6055 36.316H23.3815Z" fill="white"/>
<path d="M34.5458 32.9L32.7138 38.5H31.3218L30.0898 34.708L28.8178 38.5H27.4338L25.5938 32.9H26.9378L28.2018 36.836L29.5218 32.9H30.7218L32.0018 36.868L33.3058 32.9H34.5458Z" fill="white"/>
</svg>
