<svg width="44" height="45" viewBox="0 0 44 45" fill="none" xmlns="http://www.w3.org/2000/svg">
<path fill-rule="evenodd" clip-rule="evenodd" d="M27.0142 0.5H6V25.7002V44.4999V44.5002H38.8V44.4999V25.7002V12.2858L27.0142 0.5ZM36.8 25.7002V14.1H25.2V2.5H8V25.7002H36.8Z" fill="#00457A"/>
<path d="M19.6778 32.2L17.6168 38.5H16.0508L14.6648 34.234L13.2338 38.5H11.6768L9.60681 32.2H11.1188L12.5408 36.628L14.0258 32.2H15.3758L16.8158 36.664L18.2828 32.2H19.6778Z" fill="white"/>
<path d="M26.4047 38.5L26.3958 34.72L24.5417 37.834H23.8848L22.0397 34.801V38.5H20.6717V32.2H21.8777L24.2358 36.115L26.5578 32.2H27.7547L27.7727 38.5H26.4047Z" fill="white"/>
<path d="M33.5965 37.15H30.6715L30.1135 38.5H28.6195L31.4275 32.2H32.8675L35.6845 38.5H34.1545L33.5965 37.15ZM33.1375 36.043L32.1385 33.631L31.1395 36.043H33.1375Z" fill="white"/>
</svg>
