<svg width="44" height="45" viewBox="0 0 44 45" fill="none" xmlns="http://www.w3.org/2000/svg">
<path fill-rule="evenodd" clip-rule="evenodd" d="M27.0142 0.5H6V25.7002V44.4999V44.5002H38.8V44.4999V25.7002V12.2858L27.0142 0.5ZM36.8 25.7002V14.1H25.2V2.5H8V25.7002H36.8Z" fill="#9B6D36"/>
<path d="M20.3785 37.312V38.5H14.8705V37.555L18.3265 33.388H14.9425V32.2H20.2435V33.145L16.7965 37.312H20.3785Z" fill="white"/>
<path d="M21.4936 32.2H22.9516V38.5H21.4936V32.2Z" fill="white"/>
<path d="M27.3537 32.2C27.9117 32.2 28.3947 32.293 28.8027 32.479C29.2167 32.665 29.5347 32.929 29.7567 33.271C29.9787 33.613 30.0897 34.018 30.0897 34.486C30.0897 34.948 29.9787 35.353 29.7567 35.701C29.5347 36.043 29.2167 36.307 28.8027 36.493C28.3947 36.673 27.9117 36.763 27.3537 36.763H26.0847V38.5H24.6267V32.2H27.3537ZM27.2727 35.575C27.7107 35.575 28.0437 35.482 28.2717 35.296C28.4997 35.104 28.6137 34.834 28.6137 34.486C28.6137 34.132 28.4997 33.862 28.2717 33.676C28.0437 33.484 27.7107 33.388 27.2727 33.388H26.0847V35.575H27.2727Z" fill="white"/>
</svg>
