<svg width="24" height="24" viewBox="0 0 24 24" fill="none" xmlns="http://www.w3.org/2000/svg">
<path fill-rule="evenodd" clip-rule="evenodd" d="M0 2H1C3.20914 2 5 3.79086 5 6V15C5 16.1046 5.89543 17 7 17H7.5H18.5H19C20.1046 17 21 16.1046 21 15V6H23V15C23 16.1204 22.5394 17.1331 21.7972 17.8593C22.5342 18.501 23 19.4461 23 20.5C23 22.433 21.433 24 19.5 24C17.567 24 16 22.433 16 20.5C16 19.9632 16.1208 19.4546 16.3368 19H8.66318C8.87915 19.4546 9 19.9632 9 20.5C9 22.433 7.433 24 5.5 24C3.567 24 2 22.433 2 20.5C2 19.1754 2.73586 18.0226 3.82109 17.4282C3.30602 16.7549 3 15.9132 3 15V6C3 4.89543 2.10457 4 1 4H0V2ZM12.0001 8L12.0001 3.99998L14.0001 4L14.0001 8L18 8V10H14L14 14.0312L12 14.0312L12 10H8V8L12.0001 8ZM7 20.5C7 21.3284 6.32843 22 5.5 22C4.67157 22 4 21.3284 4 20.5C4 19.6716 4.67157 19 5.5 19C6.32843 19 7 19.6716 7 20.5ZM21 20.5C21 21.3284 20.3284 22 19.5 22C18.6716 22 18 21.3284 18 20.5C18 19.6716 18.6716 19 19.5 19C20.3284 19 21 19.6716 21 20.5Z" fill="white"/>
</svg>
