<svg width="44" height="45" viewBox="0 0 44 45" fill="none" xmlns="http://www.w3.org/2000/svg">
<path fill-rule="evenodd" clip-rule="evenodd" d="M27.0142 0.5H6V25.7002V44.4999V44.5002H38.8V44.4999V25.7002V12.2858L27.0142 0.5ZM36.8 25.7002V14.1H25.2V2.5H8V25.7002H36.8Z" fill="#487497"/>
<path d="M19.174 37.15H16.249L15.691 38.5H14.197L17.005 32.2H18.445L21.262 38.5H19.732L19.174 37.15ZM18.715 36.043L17.716 33.631L16.717 36.043H18.715Z" fill="white"/>
<path d="M27.8099 32.2L25.0829 38.5H23.6429L20.9249 32.2H22.4999L24.4169 36.7L26.3609 32.2H27.8099Z" fill="white"/>
<path d="M28.5159 32.2H29.9739V38.5H28.5159V32.2Z" fill="white"/>
</svg>
