<svg width="33" height="33" viewBox="0 0 33 33" fill="none" xmlns="http://www.w3.org/2000/svg">
<path fill-rule="evenodd" clip-rule="evenodd" d="M1 2.66675H2.33333C5.27885 2.66675 7.66667 5.05456 7.66667 8.00008V20.0001C7.66667 21.4728 8.86057 22.6667 10.3333 22.6667H11H25.6667H26.3333C27.8061 22.6667 29 21.4728 29 20.0001V12.0001C29 10.5273 27.8061 9.33341 26.3333 9.33341H11.6666V6.66675H26.3333C29.2788 6.66675 31.6666 9.05456 31.6666 12.0001V20.0001C31.6666 21.4939 31.0525 22.8443 30.0629 23.8125C31.0456 24.668 31.6667 25.9282 31.6667 27.3334C31.6667 29.9107 29.5774 32.0001 27 32.0001C24.4227 32.0001 22.3334 29.9107 22.3334 27.3334C22.3334 26.6177 22.4945 25.9396 22.7825 25.3334H12.5509C12.8388 25.9396 13 26.6177 13 27.3334C13 29.9107 10.9106 32.0001 8.3333 32.0001C5.75597 32.0001 3.66663 29.9107 3.66663 27.3334C3.66663 25.5672 4.64779 24.0302 6.09478 23.2377C5.40802 22.34 5 21.2177 5 20.0001V8.00008C5 6.52732 3.80609 5.33341 2.33333 5.33341H1V2.66675ZM10.3333 27.3334C10.3333 28.438 9.43787 29.3334 8.3333 29.3334C7.22873 29.3334 6.3333 28.438 6.3333 27.3334C6.3333 26.2288 7.22873 25.3334 8.3333 25.3334C9.43787 25.3334 10.3333 26.2288 10.3333 27.3334ZM29 27.3334C29 28.438 28.1046 29.3334 27 29.3334C25.8955 29.3334 25 28.438 25 27.3334C25 26.2288 25.8955 25.3334 27 25.3334C28.1046 25.3334 29 26.2288 29 27.3334Z" fill="#4A4A4A"/>
<path d="M1 2.66675V2.31675H0.65V2.66675H1ZM11.6666 9.33341H11.3166V9.68341H11.6666V9.33341ZM11.6666 6.66675V6.31675H11.3166V6.66675H11.6666ZM30.0629 23.8125L29.8182 23.5623L29.5471 23.8275L29.8331 24.0764L30.0629 23.8125ZM22.7825 25.3334L23.0986 25.4836L23.3362 24.9834H22.7825V25.3334ZM12.5509 25.3334V24.9834H11.9971L12.2347 25.4836L12.5509 25.3334ZM6.09478 23.2377L6.26291 23.5447L6.62047 23.3488L6.37277 23.025L6.09478 23.2377ZM1 5.33341H0.65V5.68341H1V5.33341ZM2.33333 2.31675H1V3.01675H2.33333V2.31675ZM8.01667 8.00008C8.01667 4.86126 5.47215 2.31675 2.33333 2.31675V3.01675C5.08555 3.01675 7.31667 5.24786 7.31667 8.00008H8.01667ZM8.01667 20.0001V8.00008H7.31667V20.0001H8.01667ZM10.3333 22.3167C9.05387 22.3167 8.01667 21.2795 8.01667 20.0001H7.31667C7.31667 21.6661 8.66727 23.0167 10.3333 23.0167V22.3167ZM11 22.3167H10.3333V23.0167H11V22.3167ZM25.6667 22.3167H11V23.0167H25.6667V22.3167ZM26.3333 22.3167H25.6667V23.0167H26.3333V22.3167ZM28.65 20.0001C28.65 21.2795 27.6128 22.3167 26.3333 22.3167V23.0167C27.9994 23.0167 29.35 21.6661 29.35 20.0001H28.65ZM28.65 12.0001V20.0001H29.35V12.0001H28.65ZM26.3333 9.68341C27.6128 9.68341 28.65 10.7206 28.65 12.0001H29.35C29.35 10.334 27.9994 8.98341 26.3333 8.98341V9.68341ZM11.6666 9.68341H26.3333V8.98341H11.6666V9.68341ZM11.3166 6.66675V9.33341H12.0166V6.66675H11.3166ZM26.3333 6.31675H11.6666V7.01675H26.3333V6.31675ZM32.0166 12.0001C32.0166 8.86126 29.4721 6.31675 26.3333 6.31675V7.01675C29.0855 7.01675 31.3166 9.24786 31.3166 12.0001H32.0166ZM32.0166 20.0001V12.0001H31.3166V20.0001H32.0166ZM30.3077 24.0626C31.3618 23.0313 32.0166 21.5918 32.0166 20.0001H31.3166C31.3166 21.3959 30.7432 22.6572 29.8182 23.5623L30.3077 24.0626ZM32.0167 27.3334C32.0167 25.8227 31.3485 24.4677 30.2928 23.5485L29.8331 24.0764C30.7427 24.8683 31.3167 26.0336 31.3167 27.3334H32.0167ZM27 32.3501C29.7707 32.3501 32.0167 30.104 32.0167 27.3334H31.3167C31.3167 29.7174 29.3841 31.6501 27 31.6501V32.3501ZM21.9834 27.3334C21.9834 30.104 24.2294 32.3501 27 32.3501V31.6501C24.616 31.6501 22.6834 29.7174 22.6834 27.3334H21.9834ZM22.4663 25.1832C22.1565 25.8353 21.9834 26.5646 21.9834 27.3334H22.6834C22.6834 26.6707 22.8325 26.0438 23.0986 25.4836L22.4663 25.1832ZM12.5509 25.6834H22.7825V24.9834H12.5509V25.6834ZM13.35 27.3334C13.35 26.5646 13.1768 25.8353 12.867 25.1832L12.2347 25.4836C12.5009 26.0438 12.65 26.6707 12.65 27.3334H13.35ZM8.3333 32.3501C11.1039 32.3501 13.35 30.104 13.35 27.3334H12.65C12.65 29.7174 10.7173 31.6501 8.3333 31.6501V32.3501ZM3.31663 27.3334C3.31663 30.104 5.56267 32.3501 8.3333 32.3501V31.6501C5.94927 31.6501 4.01663 29.7174 4.01663 27.3334H3.31663ZM5.92665 22.9307C4.37204 23.7822 3.31663 25.4343 3.31663 27.3334H4.01663C4.01663 25.7002 4.92355 24.2782 6.26291 23.5447L5.92665 22.9307ZM4.65 20.0001C4.65 21.2972 5.08496 22.4937 5.8168 23.4503L6.37277 23.025C5.73107 22.1862 5.35 21.1382 5.35 20.0001H4.65ZM4.65 8.00008V20.0001H5.35V8.00008H4.65ZM2.33333 5.68341C3.61279 5.68341 4.65 6.72062 4.65 8.00008H5.35C5.35 6.33402 3.99939 4.98341 2.33333 4.98341V5.68341ZM1 5.68341H2.33333V4.98341H1V5.68341ZM0.65 2.66675V5.33341H1.35V2.66675H0.65ZM8.3333 29.6834C9.63117 29.6834 10.6833 28.6313 10.6833 27.3334H9.9833C9.9833 28.2447 9.24457 28.9834 8.3333 28.9834V29.6834ZM5.9833 27.3334C5.9833 28.6313 7.03543 29.6834 8.3333 29.6834V28.9834C7.42203 28.9834 6.6833 28.2447 6.6833 27.3334H5.9833ZM8.3333 24.9834C7.03543 24.9834 5.9833 26.0355 5.9833 27.3334H6.6833C6.6833 26.4221 7.42203 25.6834 8.3333 25.6834V24.9834ZM10.6833 27.3334C10.6833 26.0355 9.63117 24.9834 8.3333 24.9834V25.6834C9.24457 25.6834 9.9833 26.4221 9.9833 27.3334H10.6833ZM27 29.6834C28.2979 29.6834 29.35 28.6313 29.35 27.3334H28.65C28.65 28.2447 27.9113 28.9834 27 28.9834V29.6834ZM24.65 27.3334C24.65 28.6313 25.7022 29.6834 27 29.6834V28.9834C26.0888 28.9834 25.35 28.2447 25.35 27.3334H24.65ZM27 24.9834C25.7022 24.9834 24.65 26.0355 24.65 27.3334H25.35C25.35 26.4221 26.0888 25.6834 27 25.6834V24.9834ZM29.35 27.3334C29.35 26.0355 28.2979 24.9834 27 24.9834V25.6834C27.9113 25.6834 28.65 26.4221 28.65 27.3334H29.35Z" fill="white"/>
</svg>
