<svg width="44" height="45" viewBox="0 0 44 45" fill="none" xmlns="http://www.w3.org/2000/svg">
<path fill-rule="evenodd" clip-rule="evenodd" d="M27.0142 0.5H6V25.7002V44.4999V44.5002H38.8V44.4999V25.7002V12.2858L27.0142 0.5ZM36.8 25.7002V14.1H25.2V2.5H8V25.7002H36.8Z" fill="#7F937F"/>
<path d="M16.6583 35.224C17.0183 35.338 17.3003 35.53 17.5043 35.8C17.7083 36.064 17.8103 36.391 17.8103 36.781C17.8103 37.333 17.5943 37.759 17.1623 38.059C16.7363 38.353 16.1123 38.5 15.2903 38.5H12.0323V32.2H15.1103C15.8783 32.2 16.4663 32.347 16.8743 32.641C17.2883 32.935 17.4953 33.334 17.4953 33.838C17.4953 34.144 17.4203 34.417 17.2703 34.657C17.1263 34.897 16.9223 35.086 16.6583 35.224ZM13.4813 33.298V34.783H14.9303C15.2903 34.783 15.5633 34.72 15.7493 34.594C15.9353 34.468 16.0283 34.282 16.0283 34.036C16.0283 33.79 15.9353 33.607 15.7493 33.487C15.5633 33.361 15.2903 33.298 14.9303 33.298H13.4813ZM15.1823 37.402C15.5663 37.402 15.8543 37.339 16.0463 37.213C16.2443 37.087 16.3433 36.892 16.3433 36.628C16.3433 36.106 15.9563 35.845 15.1823 35.845H13.4813V37.402H15.1823Z" fill="white"/>
<path d="M24.8272 38.5L24.8182 34.72L22.9642 37.834H22.3072L20.4622 34.801V38.5H19.0942V32.2H20.3002L22.6582 36.115L24.9802 32.2H26.1772L26.1952 38.5H24.8272Z" fill="white"/>
<path d="M30.5969 32.2C31.1549 32.2 31.6379 32.293 32.0459 32.479C32.4599 32.665 32.7779 32.929 32.9999 33.271C33.2219 33.613 33.3329 34.018 33.3329 34.486C33.3329 34.948 33.2219 35.353 32.9999 35.701C32.7779 36.043 32.4599 36.307 32.0459 36.493C31.6379 36.673 31.1549 36.763 30.5969 36.763H29.3279V38.5H27.8699V32.2H30.5969ZM30.5159 35.575C30.9539 35.575 31.2869 35.482 31.5149 35.296C31.7429 35.104 31.8569 34.834 31.8569 34.486C31.8569 34.132 31.7429 33.862 31.5149 33.676C31.2869 33.484 30.9539 33.388 30.5159 33.388H29.3279V35.575H30.5159Z" fill="white"/>
</svg>
