<svg width="44" height="36" viewBox="0 0 44 36" fill="none" xmlns="http://www.w3.org/2000/svg">
<path d="M42.2834 5.92728C40.4307 5.92728 38.5779 5.92861 36.7251 5.92861C34.8723 5.92861 33.0195 5.92994 31.1667 5.92994C29.3245 5.92994 27.4823 5.92728 25.6388 5.92728C23.786 5.92728 21.9333 5.92861 20.0805 5.92861C18.2383 5.92861 16.3961 5.92728 14.5525 5.92595C13.2116 5.92462 11.8706 5.9153 10.5296 5.92728C10.3101 5.92861 10.2281 5.84478 10.1606 5.65851C9.95033 5.07839 9.72551 4.50226 9.50731 3.92481C9.13569 2.94286 8.77995 1.95427 8.38453 0.982968C8.12797 0.350959 7.61353 0.0156612 6.93907 0.0103391C5.14315 -0.00562749 3.34591 -0.000305302 1.55 0.00767797C0.715518 0.0116696 -0.00787016 0.776734 6.46688e-05 1.61631C0.00932197 2.65546 0.67717 3.3407 1.71928 3.34868C2.99282 3.35932 4.26636 3.354 5.53858 3.35001C5.71182 3.35001 5.80836 3.3846 5.87713 3.57221C6.2461 4.58742 6.63755 5.59464 7.01577 6.60586C7.57386 8.10006 8.12136 9.59958 8.68209 11.0925C9.61575 13.5792 10.5587 16.0634 11.495 18.5488C12.3004 20.6884 13.1058 22.8265 13.9072 24.9674C14.1333 25.5715 14.3449 26.1809 14.5618 26.7823C12.1774 28.1407 11.413 30.8604 12.3982 33.117C13.2737 35.1234 15.4029 36.3449 17.6947 35.8978C18.7911 35.6836 19.7089 35.1234 20.4098 34.2573C21.5246 32.8815 21.7666 31.3048 21.3196 29.6043H30.9776C30.9208 29.9529 30.8454 30.2843 30.8137 30.6209C30.5677 33.1609 32.1864 35.315 34.4359 35.8486C36.3046 36.2917 37.9325 35.7594 39.1717 34.2892C40.4042 32.8269 40.6912 31.1212 39.985 29.3356C39.2457 27.4648 37.8307 26.4084 35.8139 26.2727C34.875 26.2088 33.9281 26.2394 32.9851 26.2381C28.207 26.2367 23.429 26.2394 18.6509 26.2421C17.8957 26.2421 17.8957 26.2434 17.6154 25.5209C17.6048 25.493 17.585 25.4677 17.5744 25.4384C17.3879 24.9328 17.2014 24.4285 17.0044 23.8923H17.298C19.1428 23.8923 20.9877 23.891 22.8325 23.8923C25.4457 23.8936 28.0589 23.9003 30.6721 23.9003C33.0394 23.9003 35.4066 23.891 37.7738 23.895C38.6493 23.8963 39.2338 23.4798 39.4891 22.6429C40.19 20.3384 40.8922 18.0352 41.5958 15.7321C42.3681 13.2014 43.143 10.672 43.914 8.14131C44.2685 6.98639 43.4882 5.92728 42.2834 5.92728ZM35.5719 29.5924C36.4037 29.595 37.0518 30.2816 37.0491 31.1584C37.0478 31.9927 36.3984 32.6433 35.5666 32.6446C34.7176 32.646 34.0603 31.9714 34.0656 31.1039C34.0709 30.2736 34.7533 29.5897 35.5719 29.5924ZM18.2568 31.0985C18.2634 31.9607 17.6022 32.642 16.7558 32.6446C15.9173 32.6473 15.2733 31.9927 15.264 31.1318C15.2561 30.2936 15.916 29.6057 16.7425 29.5924C17.5545 29.5791 18.2502 30.2709 18.2568 31.0985ZM39.5658 11.1497C39.2629 12.1423 38.9548 13.1348 38.6599 14.1301C38.6109 14.2977 38.0753 16.0487 38.0753 16.0487C37.7368 17.1531 37.4075 18.2335 37.0769 19.3139C36.9684 19.6678 36.8692 20.0257 36.741 20.373C36.7092 20.4582 36.5796 20.5633 36.495 20.5646C34.6475 20.5739 32.8 20.5699 30.9525 20.5686C30.934 20.5686 23.1896 20.5553 23.1896 20.5553C23.1896 20.5553 21.2694 20.5726 21.1821 20.5726C19.4576 20.5739 17.7344 20.5726 16.0099 20.5753C15.8565 20.5753 15.7454 20.562 15.6793 20.3823C15.1582 18.9746 14.6253 17.5722 14.0976 16.1672C14.087 16.1405 13.3901 14.2831 13.3094 14.0596C12.7791 12.6119 12.229 11.1723 11.6854 9.72998C11.6312 9.58761 11.5809 9.44258 11.5214 9.27626L40.1384 9.27892C39.944 9.91625 39.7549 10.5336 39.5658 11.1497Z" fill="white"/>
</svg>
