<svg width="29" height="29" viewBox="0 0 29 29" fill="none" xmlns="http://www.w3.org/2000/svg">
<path fill-rule="evenodd" clip-rule="evenodd" d="M28.9849 14.5C28.9849 22.5081 22.4964 29 14.4925 29C6.48849 29 0 22.5081 0 14.5C0 6.49187 6.48849 0 14.4925 0C22.4964 0 28.9849 6.49187 28.9849 14.5ZM21.9871 15.7373C21.9864 15.332 21.9858 14.9267 21.9859 14.5213L21.9863 13.7895V13.7894V13.7893C21.9869 12.8153 21.9874 11.8415 21.9846 10.8676L21.9845 10.8235C21.9838 10.6107 21.9831 10.3958 21.949 10.1874C21.6348 8.28113 20.1237 7.00219 18.192 7.00087C15.7283 6.99955 13.2645 6.99955 10.8008 7.00219C10.5887 7.00263 10.3735 7.00659 10.1654 7.04137C8.27239 7.3588 6.99894 8.86756 6.99718 10.7915C6.99542 13.271 6.99586 15.751 6.99806 18.2305C6.99806 18.4277 7.00378 18.628 7.03634 18.8222C7.3558 20.7219 8.85631 21.9956 10.7797 21.9982C13.2509 22.0013 15.7217 22 18.1929 21.9973C18.405 21.9973 18.6201 21.9912 18.8283 21.956C20.7037 21.6376 21.971 20.1478 21.9842 18.2406C21.9898 17.4062 21.9884 16.5718 21.9871 15.7373ZM8.04621 14.5064H8.05413C8.05413 14.1046 8.05075 13.7028 8.04738 13.301C8.03971 12.3896 8.03205 11.4784 8.06381 10.5691C8.1131 9.16077 9.24353 8.07113 10.653 8.05925C13.2108 8.03723 15.7696 8.03635 18.3275 8.05925C19.8021 8.07201 20.9246 9.23517 20.9351 10.7422C20.9527 13.2433 20.9523 15.7444 20.9356 18.245C20.925 19.8022 19.7902 20.9354 18.2307 20.9456C15.7239 20.9619 13.217 20.9614 10.7102 20.9451C9.38302 20.9363 8.32871 20.0338 8.08978 18.75C8.05369 18.5567 8.04841 18.356 8.04797 18.1587C8.04533 17.2458 8.04566 16.3326 8.04599 15.4195L8.04621 14.5064ZM18.9899 14.5065C18.9865 17.007 16.9748 19.0079 14.4726 19C11.9749 18.992 9.98767 16.9816 9.99465 14.4686C10.0011 11.987 12.0182 9.99106 14.5105 10C16.9997 10.0095 18.9934 12.0149 18.9899 14.5065ZM17.8001 14.495C17.7976 12.664 16.3234 11.191 14.492 11.189C12.6637 11.187 11.1865 12.661 11.18 14.4925C11.1735 16.3296 12.6662 17.8199 14.502 17.811C16.3363 17.8015 17.8031 16.3266 17.8001 14.495ZM17.9907 9.99952C17.9893 10.5643 18.4335 11.0038 19.0018 11C19.556 10.9961 19.9877 10.5595 19.9897 10.0005C19.9911 9.43522 19.5478 8.99616 18.9791 9.00003C18.4268 9.00341 17.9922 9.44295 17.9907 9.99952Z" fill="white"/>
</svg>
