<svg width="40" height="40" viewBox="0 0 40 40" fill="none" xmlns="http://www.w3.org/2000/svg">
<path fill-rule="evenodd" clip-rule="evenodd" d="M8.33325 15C8.33325 11.3181 11.3482 8.33337 15.0674 8.33337H24.9325C28.6516 8.33337 31.6666 11.3181 31.6666 15V25C31.6666 28.6819 28.6516 31.6667 24.9325 31.6667H15.0674C11.3482 31.6667 8.33325 28.6819 8.33325 25V15ZM25.6573 20C25.6573 23.2217 23.0717 25.8334 19.8823 25.8334C16.6929 25.8334 14.1074 23.2217 14.1074 20C14.1074 16.7784 16.6929 14.1667 19.8823 14.1667C23.0717 14.1667 25.6573 16.7784 25.6573 20ZM27.1013 14.1667C27.8986 14.1667 28.545 13.5138 28.545 12.7084C28.545 11.903 27.8986 11.25 27.1013 11.25C26.3039 11.25 25.6575 11.903 25.6575 12.7084C25.6575 13.5138 26.3039 14.1667 27.1013 14.1667Z" fill="#4A4A4A"/>
</svg>
