<svg width="21" height="27" viewBox="0 0 21 27" fill="none" xmlns="http://www.w3.org/2000/svg">
<circle cx="10.3335" cy="10.3333" r="3.5" fill="white"/>
<path d="M10.3303 25.5C9.94272 25.0487 9.5645 24.6166 9.19586 24.1768C7.41005 22.0473 5.71945 19.8503 4.20528 17.5298C3.30655 16.1526 2.47199 14.7408 1.82291 13.2336C1.46823 12.4098 1.17202 11.568 1.05018 10.6778C0.9617 10.0323 0.998435 9.38743 1.09648 8.74711C1.41003 6.70426 2.33307 4.95778 3.86793 3.52445C5.25637 2.22779 6.90817 1.41275 8.81608 1.11788C13.2634 0.431249 17.4763 2.79577 19.079 6.86922C19.5112 7.96787 19.7102 9.10908 19.6587 10.2843C19.6256 11.035 19.4148 11.753 19.1571 12.4576C18.6935 13.7257 18.0623 14.917 17.3708 16.08C16.2121 18.0285 14.9051 19.8823 13.4957 21.6666C12.5157 22.9072 11.4882 24.1125 10.4813 25.333C10.4389 25.3844 10.3918 25.4322 10.3303 25.5ZM10.3315 24.3613C10.3742 24.3132 10.4032 24.2827 10.4299 24.2507C10.8932 23.6917 11.3619 23.1372 11.8183 22.5728C13.3198 20.7149 14.7491 18.807 16.0361 16.8021C16.8655 15.5105 17.6365 14.1883 18.2284 12.7755C18.5116 12.0991 18.7473 11.4083 18.8575 10.6833C18.9729 9.92362 18.903 9.1684 18.7478 8.4222C17.875 4.2296 13.9244 1.37495 9.54174 1.7642C7.99859 1.90138 6.59178 2.40427 5.34149 3.28739C3.43125 4.63712 2.27072 6.44768 1.87129 8.70581C1.76212 9.32285 1.71736 9.94639 1.80015 10.5727C1.89871 11.3174 2.13387 12.025 2.42077 12.7182C3.05174 14.2429 3.89173 15.6614 4.79382 17.0467C6.1789 19.1742 7.7179 21.1955 9.33348 23.1628C9.65996 23.5605 9.99187 23.9535 10.3315 24.3613Z" fill="white" stroke="white" stroke-miterlimit="10"/>
</svg>
