<svg width="24" height="23" viewBox="0 0 24 23" fill="none" xmlns="http://www.w3.org/2000/svg">
<path d="M17.4455 8.86597C17.3516 8.132 17.117 7.5557 16.7003 7.04522C16.1593 6.38791 15.4679 5.9943 14.4443 5.76081C13.7772 5.60518 13.5077 5.62305 13.2664 5.83496C13.0417 6.03349 12.9978 6.4315 13.1695 6.68923C13.2903 6.8763 13.4296 6.94332 13.8172 7.01646C14.3332 7.10775 14.6898 7.22624 15.0143 7.40459C15.7028 7.78688 16.0235 8.38512 16.0578 9.35362C16.0739 9.80836 16.1147 9.94816 16.2799 10.1095C16.5861 10.4043 17.1309 10.3469 17.362 9.99412C17.4468 9.86115 17.4598 9.80327 17.4687 9.49448C17.4746 9.30331 17.4661 9.01877 17.4455 8.86597Z" fill="#131313"/>
<path d="M20.1421 9.69356C20.0061 7.4449 19.0914 5.63574 17.4544 4.36285C16.532 3.64762 15.4171 3.1558 14.195 2.91662C13.7474 2.83108 12.9232 2.76174 12.7818 2.8014C12.6483 2.83813 12.4596 2.97705 12.3755 3.10268C12.2865 3.23892 12.2665 3.54309 12.3424 3.71903C12.4648 4.01317 12.6927 4.11708 13.3308 4.17076C14.3145 4.25351 15.3291 4.58582 16.0957 5.07779C16.971 5.63794 17.6667 6.40409 18.1168 7.30438C18.5057 8.07792 18.7448 9.19267 18.7382 10.1909C18.736 10.552 18.794 10.7559 18.945 10.9049C19.1729 11.1341 19.5051 11.1843 19.7984 11.032C20.1233 10.8677 20.1993 10.5792 20.1421 9.69356Z" fill="#131313"/>
<path d="M23.1267 18.3532C23.081 18.2247 22.9742 18.0264 22.898 17.9126C22.4175 17.215 19.8364 15.2727 18.5477 14.6375C17.8118 14.2741 17.2666 14.1529 16.8625 14.2667C16.4278 14.3843 16.1991 14.5788 15.4708 15.449C15.1773 15.7978 14.8761 16.1246 14.796 16.1759C14.5977 16.3081 14.2088 16.4146 13.9343 16.4146C13.2976 16.4109 12.1424 16.0144 11.254 15.493C10.5639 15.0892 9.67941 14.3659 9.00071 13.6499C8.20001 12.8091 7.65486 12.0675 7.22398 11.2303C6.66736 10.1546 6.52629 9.49732 6.75883 9.01632C6.81603 8.89517 6.8923 8.7667 6.92657 8.72625C6.96091 8.68959 7.31932 8.40685 7.7158 8.09842C8.49362 7.50365 8.61943 7.3678 8.7643 6.96025C8.94731 6.44252 8.89777 5.91382 8.61563 5.38146C8.39828 4.97757 7.8302 4.09639 7.41845 3.52731C6.87323 2.77833 5.51591 1.17751 5.24517 0.960825C4.75715 0.579018 4.13193 0.512888 3.44177 0.769953C2.71361 1.04166 1.34862 2.09907 0.765266 2.83707C0.239113 3.50528 0.0371057 3.9789 0.00657287 4.60308C-0.0200973 5.11708 0.0256382 5.33004 0.307783 5.98728C2.51533 11.1422 5.80945 15.2581 10.3352 18.5258C12.699 20.2331 15.1506 21.5328 17.6936 22.4214C19.1767 22.9391 19.8211 22.9647 20.5798 22.5389C20.9001 22.3553 21.6931 21.5732 22.1354 21.0041C22.8674 20.0568 23.1382 19.6199 23.2144 19.2711C23.2678 19.0325 23.2258 18.6176 23.1267 18.3532Z" fill="#131313"/>
<path d="M22.8879 10.21C22.8391 8.93801 22.6164 7.89469 22.152 6.73147C21.6934 5.58724 21.2294 4.84058 20.353 3.83069C19.5245 2.8838 18.8809 2.34314 17.8602 1.74132C16.4362 0.902804 14.7032 0.347907 12.7611 0.114541C12.0988 0.0329817 11.9489 0.0388073 11.7457 0.169174C11.352 0.416136 11.3572 1.03212 11.7522 1.27538C11.883 1.35276 11.999 1.38095 12.5288 1.44763C13.3421 1.55291 13.865 1.65213 14.4855 1.81493C16.9189 2.45452 18.7901 3.76186 20.0411 5.70256C21.088 7.32015 21.5226 8.93786 21.4609 11.0039C21.4394 11.7024 21.455 11.8253 21.566 11.9932C21.7787 12.306 22.3395 12.3678 22.6272 12.1083C22.8062 11.9501 22.8399 11.8313 22.8752 11.2335C22.8921 10.9216 22.8957 10.4613 22.8879 10.21Z" fill="#131313"/>
</svg>
