<svg width="37" height="37" viewBox="0 0 37 37" fill="none" xmlns="http://www.w3.org/2000/svg">
<path d="M18.4873 36.4055C8.76912 36.4451 0.630533 28.3184 0.594844 18.539C0.559154 8.78065 8.68717 0.618316 18.4622 0.594535C28.2029 0.570753 36.3692 8.68684 36.4049 18.4267C36.4393 28.2418 28.3443 36.3645 18.4873 36.4055ZM13.5093 18.2906C10.8246 14.837 12.0539 11.2883 14.0327 9.42539C16.3486 7.2441 19.6175 6.96797 22.1343 8.74894C23.4522 9.6817 24.3735 10.9117 24.8018 12.4721C25.39 14.6137 24.8401 16.5268 23.4905 18.2628C24.5361 18.9129 25.4125 19.6818 26.1434 20.6119C27.9028 22.8527 28.7739 25.4607 29.2802 28.2167C29.411 28.9275 29.4996 29.6462 29.6106 30.3821C33.6806 26.8585 36.0784 20.1508 33.9952 13.5079C31.7983 6.50423 25.2869 2.0016 17.792 2.27377C10.5391 2.53801 4.34624 7.59157 2.69658 14.5754C1.11037 21.2884 3.87169 27.4729 7.47504 30.4495C7.61912 29.5485 7.72884 28.6408 7.91522 27.749C8.69907 23.9717 10.1319 20.567 13.5093 18.2906ZM18.4649 34.7791C19.1059 34.7368 19.751 34.7183 20.3895 34.6483C23.0649 34.3497 25.5248 33.4566 27.7429 31.9253C27.8777 31.8328 28.0086 31.6095 28.0006 31.455C27.8592 28.8852 27.4217 26.3736 26.3417 24.0166C25.5037 22.1868 24.3167 20.6423 22.5375 19.6131C22.2889 19.4691 22.1224 19.4836 21.8845 19.6276C19.6373 20.9951 17.3757 21.0017 15.1272 19.6342C14.8734 19.4797 14.7069 19.5087 14.4795 19.6475C13.0255 20.5379 11.9508 21.7772 11.1484 23.2609C9.78166 25.791 9.28597 28.5444 9.08769 31.3744C9.06258 31.7284 9.18815 31.9121 9.47103 32.0957C12.2072 33.8675 15.2078 34.7381 18.4649 34.7791ZM23.3742 14.1209C23.3781 11.3041 21.3266 9.2391 18.5151 9.23117C15.6863 9.22325 13.5899 11.3094 13.6005 14.1222C13.611 16.9179 15.6929 18.9921 18.4939 19.0014C21.2896 19.0093 23.3715 16.9284 23.3742 14.1209Z" fill="white"/>
<path d="M18.4147 37C13.5821 37 8.99395 35.075 5.48974 31.5752C1.96702 28.0582 0.0186199 23.4287 0.000114084 18.5403C-0.0170699 13.6664 1.90754 9.03828 5.41968 5.50673C8.93711 1.96726 13.5689 0.0118907 18.461 0C18.4755 0 18.4914 0 18.5059 0C23.3598 0 27.9704 1.9263 31.4931 5.42746C35.0264 8.93919 36.9827 13.5554 36.9999 18.424C37.0171 23.3309 35.0911 27.9749 31.5777 31.4999C28.0642 35.0248 23.4166 36.9775 18.4901 36.9987C18.465 37 18.4399 37 18.4147 37ZM18.4848 35.8109L18.4874 36.4055L18.4848 35.8109C23.0941 35.7924 27.4443 33.9639 30.7343 30.6622C34.0244 27.3619 35.8261 23.0178 35.8102 18.4293C35.7944 13.8778 33.9623 9.55883 30.6537 6.2717C27.3557 2.9925 23.0425 1.18907 18.5059 1.18907C18.4914 1.18907 18.4782 1.18907 18.4636 1.18907C13.8901 1.19964 9.55705 3.03082 6.26302 6.34437C2.97559 9.65131 1.17391 13.9809 1.18977 18.5363C1.20696 23.109 3.03243 27.4398 6.33043 30.7336C9.60993 34.0088 13.9006 35.8109 18.4147 35.8109C18.4385 35.8109 18.461 35.8109 18.4848 35.8109ZM18.4808 35.3736H18.457C15.0612 35.3313 11.9284 34.3959 9.14596 32.5938C8.84194 32.397 8.44274 32.0521 8.49297 31.3321C8.73751 27.8283 9.39579 25.252 10.6238 22.9782C11.5173 21.324 12.7097 20.0332 14.1676 19.1401C14.4439 18.971 14.8748 18.786 15.4353 19.1269C17.4974 20.3807 19.5039 20.3794 21.574 19.1203C22.0062 18.8574 22.4067 18.8508 22.835 19.0992C24.5811 20.1099 25.9056 21.6372 26.8825 23.7696C27.8831 25.9522 28.4264 28.3845 28.5943 31.4219C28.6167 31.8249 28.3524 32.2265 28.0814 32.4141C25.8197 33.9758 23.254 34.9271 20.4557 35.2388C20.001 35.2891 19.5449 35.3142 19.1034 35.3379C18.9038 35.3485 18.7042 35.3591 18.5046 35.3723L18.4808 35.3736ZM9.68263 31.5104C9.68263 31.5104 9.70378 31.5382 9.79234 31.5963C12.3779 33.2703 15.2899 34.1409 18.4491 34.1845C18.6461 34.1713 18.8417 34.1608 19.0387 34.1502C19.4828 34.1264 19.9018 34.1039 20.3222 34.0564C22.9169 33.767 25.2949 32.8885 27.3887 31.4444C27.3927 31.4391 27.3967 31.4338 27.4006 31.4272C27.2381 28.5708 26.7278 26.2931 25.7986 24.2637C24.9275 22.3625 23.7616 21.0096 22.2362 20.127C22.2309 20.1231 22.2243 20.1204 22.2203 20.1178C22.2124 20.1218 22.2018 20.1284 22.1899 20.135C19.7392 21.6253 17.2581 21.6279 14.8154 20.1416C14.814 20.1403 14.8127 20.1403 14.8114 20.1389C14.8048 20.1429 14.7968 20.1469 14.7876 20.1535C13.4935 20.9462 12.473 22.056 11.6694 23.5437C10.5246 25.6615 9.91131 28.0886 9.67867 31.4153C9.6747 31.484 9.68263 31.5078 9.68263 31.5104ZM7.89418 31.5686L7.09314 30.9067C5.12227 29.2789 3.51755 26.8625 2.57507 24.1052C1.51363 21.0004 1.35501 17.6577 2.11639 14.438C3.82553 7.19918 10.2629 1.9514 17.7697 1.67924C25.5408 1.39914 32.2888 6.07881 34.5624 13.3295C35.5802 16.573 35.6212 20.0134 34.6814 23.2794C33.8169 26.2838 32.154 28.9658 29.9994 30.8314L29.1825 31.5382L29.0212 30.4707C28.9855 30.2355 28.9525 30.003 28.9194 29.7718C28.8481 29.271 28.7806 28.798 28.6934 28.3237C28.1197 25.2057 27.1601 22.8725 25.673 20.9792C24.9936 20.1138 24.1767 19.3911 23.1747 18.7675L22.6142 18.4187L23.0187 17.8982C24.3379 16.2005 24.7332 14.4776 24.2269 12.6306C23.8502 11.2552 23.0293 10.1137 21.7894 9.23514C19.5066 7.61932 16.5536 7.87035 14.4399 9.85874C12.9952 11.2182 11.2728 14.4486 13.9786 17.9273L14.3686 18.4293L13.8412 18.7847C11.0626 20.6582 9.41297 23.4604 8.49297 27.8706C8.36872 28.4638 8.27751 29.0834 8.18895 29.6832C8.14665 29.9699 8.10435 30.2566 8.05808 30.5433L7.89418 31.5686ZM18.4319 2.8551C18.2257 2.8551 18.0195 2.85906 17.812 2.86699C10.8392 3.12066 4.86054 7.99057 3.273 14.7115C1.84012 20.7797 4.11502 26.2864 7.05084 29.2565C7.13015 28.7188 7.21607 28.1691 7.32975 27.6275C7.96555 24.5781 9.15125 20.7903 12.6753 18.1545C11.6205 16.5915 11.1922 14.8832 11.4328 13.1789C11.6522 11.6225 12.4519 10.0979 13.6244 8.99204C16.161 6.60332 19.7194 6.31002 22.4768 8.26274C23.9467 9.30384 24.9222 10.666 25.3743 12.3135C25.9268 14.3257 25.5765 16.2718 24.3353 18.1069C25.2196 18.7239 25.9678 19.4268 26.6089 20.2433C28.2189 22.2938 29.2525 24.7922 29.8632 28.1071C29.928 28.4558 29.9822 28.8086 30.0324 29.1574C31.6213 27.5059 32.848 25.3392 33.5366 22.9478C34.4117 19.9077 34.3734 16.7038 33.4256 13.6823C31.3741 7.14369 25.3954 2.8551 18.4319 2.8551ZM18.5139 19.5946C18.5073 19.5946 18.5007 19.5946 18.4941 19.5946C15.3785 19.584 13.019 17.2323 13.0071 14.1236C13.0005 12.6095 13.5543 11.2182 14.5642 10.2075C15.5767 9.19418 16.9739 8.63664 18.5007 8.63664C18.5059 8.63664 18.5126 8.63664 18.5178 8.63664C21.681 8.64589 23.9731 10.9527 23.9691 14.1209C23.9678 15.6429 23.4074 17.0368 22.3922 18.0462C21.3889 19.0463 20.0128 19.5946 18.5139 19.5946ZM18.5007 9.82571C17.2925 9.82571 16.194 10.2591 15.4062 11.0478C14.621 11.8326 14.1928 12.9239 14.1967 14.1196C14.206 16.5955 16.0156 18.3976 18.498 18.4069C18.5033 18.4069 18.5086 18.4069 18.5139 18.4069C19.6956 18.4069 20.7742 17.9801 21.5541 17.2046C22.3433 16.4198 22.7795 15.3245 22.7808 14.1209C22.7834 11.6397 20.9897 9.83364 18.5152 9.82703C18.5099 9.82571 18.5046 9.82571 18.5007 9.82571Z" fill="white"/>
</svg>
