<svg width="40" height="40" viewBox="0 0 40 40" fill="none" xmlns="http://www.w3.org/2000/svg">
<path d="M8.08691 33.5001C8.08691 33.5001 14.3869 30.8001 16.1869 29.0001C17.9869 27.2001 12.5869 27.2001 12.5869 18.2001C12.5869 9.20007 19.7869 9.20007 19.7869 9.20007C19.7869 9.20007 26.9869 9.20007 26.9869 18.2001C26.9869 27.2001 21.5869 27.2001 23.3869 29.0001C25.1869 30.8001 31.4869 33.5001 31.4869 33.5001" stroke="white" stroke-width="3" stroke-linecap="round"/>
<path fill-rule="evenodd" clip-rule="evenodd" d="M19.7871 38C29.7282 38 37.7871 29.9411 37.7871 20C37.7871 10.0589 29.7282 2 19.7871 2C9.84598 2 1.78711 10.0589 1.78711 20C1.78711 29.9411 9.84598 38 19.7871 38Z" stroke="white" stroke-width="3"/>
</svg>
