<svg width="44" height="45" viewBox="0 0 44 45" fill="none" xmlns="http://www.w3.org/2000/svg">
<path fill-rule="evenodd" clip-rule="evenodd" d="M27.0142 0.5H6V25.7002V44.4999V44.5002H38.8V44.4999V25.7002V12.2858L27.0142 0.5ZM36.8 25.7002V14.1H25.2V2.5H8V25.7002H36.8Z" fill="#710068"/>
<path d="M17.0175 38.5L15.8025 36.745H15.7305H14.4615V38.5H13.0035V32.2H15.7305C16.2885 32.2 16.7715 32.293 17.1795 32.479C17.5935 32.665 17.9115 32.929 18.1335 33.271C18.3555 33.613 18.4665 34.018 18.4665 34.486C18.4665 34.954 18.3525 35.359 18.1245 35.701C17.9025 36.037 17.5845 36.295 17.1705 36.475L18.5835 38.5H17.0175ZM16.9905 34.486C16.9905 34.132 16.8765 33.862 16.6485 33.676C16.4205 33.484 16.0875 33.388 15.6495 33.388H14.4615V35.584H15.6495C16.0875 35.584 16.4205 35.488 16.6485 35.296C16.8765 35.104 16.9905 34.834 16.9905 34.486Z" fill="white"/>
<path d="M23.9507 37.15H21.0257L20.4677 38.5H18.9737L21.7817 32.2H23.2217L26.0387 38.5H24.5087L23.9507 37.15ZM23.4917 36.043L22.4927 33.631L21.4937 36.043H23.4917Z" fill="white"/>
<path d="M30.8863 38.5L29.6713 36.745H29.5993H28.3303V38.5H26.8723V32.2H29.5993C30.1573 32.2 30.6403 32.293 31.0483 32.479C31.4623 32.665 31.7803 32.929 32.0023 33.271C32.2243 33.613 32.3353 34.018 32.3353 34.486C32.3353 34.954 32.2213 35.359 31.9933 35.701C31.7713 36.037 31.4533 36.295 31.0393 36.475L32.4523 38.5H30.8863ZM30.8593 34.486C30.8593 34.132 30.7453 33.862 30.5173 33.676C30.2893 33.484 29.9563 33.388 29.5183 33.388H28.3303V35.584H29.5183C29.9563 35.584 30.2893 35.488 30.5173 35.296C30.7453 35.104 30.8593 34.834 30.8593 34.486Z" fill="white"/>
</svg>
