<svg width="55" height="35" viewBox="0 0 55 35" fill="none" xmlns="http://www.w3.org/2000/svg">
<path d="M33.5 5.6749C32.7575 5.6749 32.0732 5.67557 31.3896 5.6749C30.9648 5.67424 30.5399 5.66499 30.1157 5.67358C29.9367 5.67689 29.8615 5.6108 29.8465 5.43169C29.8256 5.19113 29.7929 4.9499 29.7491 4.71263C29.6269 4.04645 29.3373 3.49327 28.6517 3.27848C27.8929 3.04122 27.1628 3.07823 26.5374 3.64792C26.0119 4.12575 25.6923 4.73907 25.4786 5.40526C25.3021 5.95645 25.1674 6.52086 25.0145 7.07932C25.0407 7.09848 25.0674 7.11765 25.0936 7.13682C25.221 7.07205 25.3485 7.00794 25.4759 6.94317C28.4537 5.43169 32.0124 6.74556 33.1935 9.90202C34.1869 12.5569 33.8111 15.065 31.9386 17.2519C29.8086 19.7389 25.1877 19.6609 23.1087 16.8481C22.1884 15.6029 21.6917 14.1992 21.4904 12.6837C21.1257 9.93639 21.2054 7.20753 22.0387 4.54543C22.5093 3.04122 23.2792 1.69695 24.6851 0.901884C26.7936 -0.290379 28.9589 -0.316154 31.0615 0.917746C32.519 1.77295 33.1438 3.19983 33.3915 4.82499C33.4294 5.0834 33.4575 5.34445 33.5 5.6749ZM30.0929 12.6375C30.0641 12.3421 30.0484 12.0447 30.0027 11.7519C29.9687 11.5358 29.9105 11.321 29.8373 11.1148C29.3929 9.85972 28.4484 9.26029 27.2125 9.45195C26.2988 9.59338 25.5877 10.1122 24.9485 10.746C24.8773 10.8167 24.8459 10.9661 24.8544 11.0738C24.8942 11.5668 24.9348 12.0618 25.0125 12.5502C25.155 13.4378 25.408 14.2884 25.9583 15.0194C26.9354 16.3167 28.7092 16.2163 29.538 14.8224C29.9393 14.1476 30.0765 13.4127 30.0929 12.6375Z" fill="#6A6A6A"/>
<path d="M46.8156 9.56873C46.8169 11.3393 46.6849 13.0927 46.1313 14.7859C45.6195 16.3509 44.7881 17.6793 43.2803 18.4492C40.2647 19.9898 36.7771 18.6753 35.4412 15.5036C34.8752 14.1587 34.6366 12.7377 34.551 11.2924C34.4321 9.27595 34.4569 7.26285 34.9079 5.27883C35.166 4.14208 35.57 3.06746 36.2706 2.12502C37.1412 0.951257 38.3065 0.284409 39.7372 0.107287C41.4751 -0.107505 43.0895 0.186595 44.4215 1.43239C45.326 2.27834 45.8555 3.36222 46.2058 4.53862C46.6947 6.17832 46.809 7.86758 46.8156 9.56873ZM43.2666 9.88663C43.1875 8.6177 43.1588 7.67063 43.0614 6.73017C42.964 5.78838 42.8137 4.84792 42.266 4.037C41.449 2.82755 39.8072 2.81103 39.0503 4.06013C38.7235 4.59942 38.4974 5.24248 38.3869 5.86703C37.9948 8.09228 38.0124 10.336 38.2745 12.5771C38.368 13.3775 38.5163 14.1666 38.9274 14.8777C39.7405 16.2835 41.5634 16.302 42.3588 14.8857C42.6019 14.4534 42.7993 13.9584 42.8699 13.4707C43.0561 12.1786 43.162 10.8747 43.2666 9.88663Z" fill="#6A6A6A"/>
<path d="M8.17676 12.8652C9.41203 12.8652 10.5944 12.8652 11.8251 12.8652C11.8251 13.0225 11.8355 13.1626 11.8231 13.3001C11.7015 14.6496 12.5682 16.0673 14.5924 15.9146C15.8577 15.8194 16.7472 15.0105 16.9374 13.7429C16.9845 13.4296 16.9995 13.1058 16.9812 12.7892C16.9074 11.5005 16.2178 10.71 14.9342 10.5276C14.2701 10.4331 13.5884 10.4622 12.9146 10.4371C12.797 10.4324 12.6787 10.4364 12.5336 10.4364C12.5336 9.40342 12.5336 8.39753 12.5336 7.34339C12.8865 7.34339 13.2309 7.36058 13.5734 7.33877C13.9845 7.31233 14.4022 7.2925 14.8015 7.19998C15.5342 7.03013 15.9564 6.53049 16.0864 5.78433C16.1864 5.21265 16.1969 4.64494 15.9649 4.09639C15.8165 3.74545 15.5727 3.47647 15.225 3.34098C14.4564 3.04226 13.6865 3.06076 12.9486 3.44408C12.5153 3.66945 12.2845 4.07656 12.1695 4.53853C12.0819 4.88947 12.0499 5.25429 11.9715 5.60787C11.9512 5.69775 11.8473 5.83654 11.78 5.83786C10.6695 5.85042 9.55909 5.84447 8.44865 5.84117C8.4297 5.84117 8.41074 5.822 8.36957 5.79887C8.47087 4.03493 8.92315 2.42431 10.382 1.26774C12.3963 -0.330978 15.7603 -0.385172 17.8276 1.14415C20.1367 2.85192 20.421 6.35601 18.4184 8.41537C18.374 8.46097 18.3354 8.51186 18.2831 8.57333C18.3446 8.6229 18.3916 8.66585 18.4439 8.7022C19.789 9.63275 20.4589 10.9506 20.5831 12.5665C20.8877 16.5253 17.8211 18.968 14.6335 19.0261C13.078 19.0545 11.6218 18.7591 10.3539 17.7909C9.09178 16.8273 8.41074 15.5313 8.24212 13.9524C8.20552 13.6041 8.19963 13.2518 8.17676 12.8652Z" fill="#6A6A6A"/>
<path d="M9.4132 9.22124C8.64655 9.62902 7.86682 10.013 7.1165 10.4485C5.66031 11.2925 4.32961 12.2984 3.31525 13.6764C1.61462 15.9875 1.70154 18.5538 3.53224 20.7718C4.52373 21.9733 5.73548 22.8946 7.06029 23.6778C9.39229 25.0577 11.9132 25.9572 14.5164 26.6379C17.9569 27.5381 21.4621 27.9928 25.0078 28.1507C25.1463 28.1567 25.2855 28.1514 25.462 28.1514C25.462 26.8408 25.462 25.5567 25.462 24.2732C25.4888 24.258 25.5156 24.2422 25.5424 24.227C27.4326 26.0035 29.3221 27.78 31.243 29.5856C29.3325 31.3832 27.4463 33.1577 25.4881 35.0003C25.4881 33.6904 25.4881 32.4605 25.4881 31.2114C24.7372 31.1638 24.0444 31.1208 23.3516 31.0752C19.4464 30.8188 15.6085 30.1738 11.8668 28.9987C9.38183 28.2188 6.99363 27.2123 4.80934 25.7616C3.33159 24.7802 2.00285 23.6361 1.04404 22.1055C-0.435681 19.7441 -0.336336 17.0648 1.30286 14.8065C2.52702 13.1199 4.12373 11.8734 5.91194 10.8755C6.93873 10.3025 8.02368 9.83522 9.0838 9.32302C9.18772 9.27279 9.30079 9.24107 9.40993 9.20142C9.40993 9.20736 9.41124 9.21463 9.4132 9.22124Z" fill="#6A6A6A"/>
<path d="M47.4484 10.0359C47.5347 10.067 47.6242 10.0907 47.7059 10.1311C49.5072 11.0206 51.1954 12.0801 52.615 13.5301C53.7542 14.6939 54.6346 16.0124 54.9124 17.668C55.1895 19.3176 54.7803 20.8132 53.8915 22.1931C52.8836 23.7582 51.4934 24.9147 49.9575 25.9067C47.5771 27.444 44.9739 28.4651 42.2746 29.2555C39.421 30.0916 36.508 30.6104 33.5551 30.919C33.5022 30.9243 33.4479 30.9197 33.3662 30.9197C33.3662 29.9263 33.3662 28.9429 33.3662 27.9146C33.893 27.8478 34.4289 27.7844 34.9642 27.711C38.6707 27.2041 42.289 26.3555 45.7242 24.8209C47.4968 24.0291 49.1667 23.0609 50.5869 21.708C51.6941 20.6539 52.5686 19.4438 52.8235 17.8821C53.0973 16.2014 52.5366 14.7574 51.5176 13.464C50.483 12.1508 49.1614 11.1892 47.7373 10.3571C47.6209 10.289 47.5124 10.2084 47.4007 10.1337C47.4164 10.1007 47.4327 10.0683 47.4484 10.0359Z" fill="#6A6A6A"/>
<path d="M50.7602 5.61329C49.2393 5.62387 48.0106 4.38468 47.9962 2.8243C47.9825 1.3148 49.2145 0.0590896 50.7314 0.0359581C52.2438 0.0128266 53.5079 1.2725 53.5157 2.80909C53.5229 4.34503 52.2876 5.60206 50.7602 5.61329ZM50.7458 4.12693C51.4556 4.13288 52.0288 3.56186 52.0425 2.83487C52.0556 2.1363 51.4569 1.52166 50.7628 1.521C50.0517 1.52034 49.4642 2.10656 49.4668 2.81438C49.4694 3.53608 50.0387 4.12032 50.7458 4.12693Z" fill="#6A6A6A"/>
</svg>
