<svg width="24" height="24" viewBox="0 0 24 24" fill="none" xmlns="http://www.w3.org/2000/svg">
<path fill-rule="evenodd" clip-rule="evenodd" d="M3.00005 10.7778C3.00005 15.0733 6.48228 18.5556 10.7778 18.5556C12.754 18.5556 14.558 17.8186 15.9301 16.6044C15.9758 16.4497 16.0597 16.3039 16.1818 16.1818C16.3039 16.0597 16.4498 15.9758 16.6045 15.93C17.8186 14.558 18.5556 12.7539 18.5556 10.7778C18.5556 6.48223 15.0734 3 10.7778 3C6.48228 3 3.00005 6.48223 3.00005 10.7778ZM18.3628 16.9486C19.7337 15.2656 20.5556 13.1177 20.5556 10.7778C20.5556 5.37766 16.1779 1 10.7778 1C5.37771 1 1.00005 5.37766 1.00005 10.7778C1.00005 16.1779 5.37771 20.5556 10.7778 20.5556C13.1177 20.5556 15.2656 19.7336 16.9486 18.3628L21.0707 22.4849C21.4612 22.8754 22.0944 22.8754 22.4849 22.4849C22.8755 22.0944 22.8755 21.4612 22.4849 21.0707L18.3628 16.9486Z" fill="#6A6A6A"/>
<path d="M15.9301 16.6044L16.4095 16.7462L16.3689 16.8838L16.2614 16.9789L15.9301 16.6044ZM16.6045 15.93L16.9789 16.2614L16.8838 16.3688L16.7463 16.4095L16.6045 15.93ZM18.3628 16.9486L18.0093 17.3021L17.69 16.9829L17.9752 16.6328L18.3628 16.9486ZM16.9486 18.3628L16.6329 17.9751L16.9829 17.69L17.3022 18.0092L16.9486 18.3628ZM21.0707 22.4849L20.7172 22.8384L21.0707 22.4849ZM22.4849 22.4849L22.1314 22.1313L22.4849 22.4849ZM22.4849 21.0707L22.1314 21.4242H22.1314L22.4849 21.0707ZM10.7778 19.0556C6.20614 19.0556 2.50005 15.3495 2.50005 10.7778H3.50005C3.50005 14.7972 6.75843 18.0556 10.7778 18.0556V19.0556ZM16.2614 16.9789C14.8015 18.2708 12.8807 19.0556 10.7778 19.0556V18.0556C12.6273 18.0556 14.3146 17.3663 15.5987 16.23L16.2614 16.9789ZM16.5354 16.5353C16.4737 16.597 16.4322 16.6695 16.4095 16.7462L15.4506 16.4626C15.5194 16.2299 15.6457 16.0108 15.8283 15.8282L16.5354 16.5353ZM16.7463 16.4095C16.6695 16.4322 16.5971 16.4737 16.5354 16.5353L15.8283 15.8282C16.0108 15.6457 16.23 15.5193 16.4627 15.4505L16.7463 16.4095ZM19.0556 10.7778C19.0556 12.8806 18.2708 14.8014 16.9789 16.2614L16.23 15.5987C17.3664 14.3145 18.0556 12.6272 18.0556 10.7778H19.0556ZM10.7778 2.5C15.3495 2.5 19.0556 6.20609 19.0556 10.7778H18.0556C18.0556 6.75837 14.7972 3.5 10.7778 3.5V2.5ZM2.50005 10.7778C2.50005 6.20609 6.20614 2.5 10.7778 2.5V3.5C6.75843 3.5 3.50005 6.75837 3.50005 10.7778H2.50005ZM21.0556 10.7778C21.0556 13.2368 20.1914 15.4954 18.7505 17.2643L17.9752 16.6328C19.276 15.0357 20.0556 12.9985 20.0556 10.7778H21.0556ZM10.7778 0.5C16.4541 0.5 21.0556 5.10152 21.0556 10.7778H20.0556C20.0556 5.6538 15.9018 1.5 10.7778 1.5V0.5ZM0.500053 10.7778C0.500053 5.10152 5.10157 0.5 10.7778 0.5V1.5C5.65386 1.5 1.50005 5.6538 1.50005 10.7778H0.500053ZM10.7778 21.0556C5.10157 21.0556 0.500053 16.454 0.500053 10.7778H1.50005C1.50005 15.9018 5.65386 20.0556 10.7778 20.0556V21.0556ZM17.2644 18.7505C15.4955 20.1913 13.2369 21.0556 10.7778 21.0556V20.0556C12.9985 20.0556 15.0358 19.276 16.6329 17.9751L17.2644 18.7505ZM17.3022 18.0092L21.4243 22.1313L20.7172 22.8384L16.5951 18.7163L17.3022 18.0092ZM21.4243 22.1313C21.6195 22.3266 21.9361 22.3266 22.1314 22.1313L22.8385 22.8384C22.2527 23.4242 21.303 23.4242 20.7172 22.8384L21.4243 22.1313ZM22.1314 22.1313C22.3266 21.9361 22.3266 21.6195 22.1314 21.4242L22.8385 20.7171C23.4243 21.3029 23.4243 22.2527 22.8385 22.8384L22.1314 22.1313ZM22.1314 21.4242L18.0093 17.3021L18.7164 16.595L22.8385 20.7171L22.1314 21.4242Z" fill="#6A6A6A"/>
</svg>
