<svg width="15" height="14" viewBox="0 0 15 14" fill="none" xmlns="http://www.w3.org/2000/svg">
<g clip-path="url(#clip0)">
<path fill-rule="evenodd" clip-rule="evenodd" d="M7.66987 14C11.4123 14 14.4657 10.8549 14.4657 7.00005C14.4657 6.8748 14.3711 6.77738 14.2495 6.77738H8.26434H8.07519V6.76412H8.1135V0.863525H8.07519V0.862869V0.236626C8.07519 0.111378 7.98062 0.013962 7.85902 0.013962H7.65636C3.92743 4.55203e-05 0.874023 3.14517 0.874023 7.00005C0.874023 10.8549 3.92743 14 7.66987 14ZM13.5875 7.86287C13.4524 8.85094 13.0876 9.75551 12.5607 10.5348C12.4932 10.6323 12.3581 10.6601 12.2635 10.5905C11.3313 9.99209 10.6422 9.01794 10.399 7.87678C10.372 7.73762 10.4801 7.59845 10.6152 7.59845H13.3714C13.5065 7.59845 13.601 7.7237 13.5875 7.86287ZM8.29136 7.59845H9.31817C9.42625 7.59845 9.52083 7.68195 9.53434 7.79329C9.76402 9.19885 10.5476 10.4235 11.642 11.1889C11.7636 11.2724 11.7771 11.4394 11.669 11.5368C10.7638 12.3857 9.58838 12.9563 8.30487 13.0955C8.16976 13.1094 8.06168 13.012 8.06168 12.8728V7.83504C8.07519 7.70979 8.18328 7.59845 8.29136 7.59845ZM1.96838 7.59845H4.7786C4.9137 7.59845 5.02179 7.73762 4.99477 7.87678C4.75157 9.03185 4.04902 10.0199 3.08977 10.6183C2.99519 10.674 2.86009 10.6601 2.79253 10.5627C2.25211 9.78335 1.88732 8.86486 1.75221 7.86287C1.7387 7.7237 1.83328 7.59845 1.96838 7.59845ZM7.02136 13.1094C5.75136 12.9702 4.58945 12.4136 3.68423 11.5647C3.57615 11.4672 3.58966 11.2863 3.71126 11.2167C4.83264 10.4374 5.62977 9.21277 5.84594 7.79329C5.85945 7.68195 5.95402 7.59845 6.06211 7.59845H7.04838C7.16998 7.59845 7.26455 7.69587 7.26455 7.82112V12.8867C7.26455 13.0259 7.14296 13.1233 7.02136 13.1094ZM7.26455 1.11337V6.5408C7.26455 6.66605 7.16998 6.76346 7.04838 6.76346H6.11615C6.00806 6.76346 5.91349 6.67997 5.89998 6.55472C5.77838 4.96824 4.95423 3.5905 3.75179 2.7416C3.63019 2.6581 3.61668 2.47718 3.72477 2.37977C4.62998 1.55869 5.76487 1.01595 7.02136 0.876785C7.14296 0.862869 7.26455 0.974201 7.26455 1.11337ZM3.1303 3.34001C4.18413 4.02191 4.92721 5.17698 5.06232 6.51297C5.07583 6.65213 4.98126 6.76346 4.84615 6.76346H1.92785C1.79275 6.76346 1.69817 6.65213 1.71168 6.51297C1.80626 5.3579 2.19807 4.28633 2.83306 3.39567C2.90062 3.29826 3.03572 3.27042 3.1303 3.34001ZM11.7885 5.85827C11.6128 5.85827 11.4777 5.7191 11.4777 5.53819C11.4777 4.27179 10.4644 3.24197 9.20794 3.24197C9.0323 3.24197 8.89719 3.1028 8.89719 2.92189C8.89719 2.74097 9.0323 2.60181 9.20794 2.60181C10.8022 2.60181 12.0857 3.90996 12.0857 5.52427C12.0992 5.7191 11.9641 5.85827 11.7885 5.85827ZM9.92454 5.80251C9.80288 5.76076 9.70826 5.62159 9.72178 5.48243C9.73529 5.25976 9.54605 5.02318 9.26218 5.0371C9.14052 5.0371 9.03238 4.9536 9.00534 4.82835C8.95127 4.60569 9.11348 4.41086 9.30273 4.42478C9.8975 4.46652 10.3301 4.96752 10.2895 5.53809C10.2625 5.71901 10.1003 5.85817 9.92454 5.80251ZM13.4233 5.53802C13.4233 5.71894 13.5584 5.8581 13.734 5.8581C13.9096 5.8581 14.0448 5.71894 14.0312 5.53802C14.0312 2.69906 11.8695 0.388916 9.20794 0.388916C9.0323 0.388916 8.89719 0.528081 8.89719 0.708996C8.89719 0.88991 9.0323 1.02908 9.20794 1.02908C11.5318 1.02908 13.4233 3.04697 13.4233 5.53802Z" fill="black"/>
</g>
<defs>
<clipPath id="clip0">
<rect width="13.9927" height="14" fill="white" transform="translate(0.874023)"/>
</clipPath>
</defs>
</svg>
