<svg width="22" height="23" viewBox="0 0 22 23" fill="none" xmlns="http://www.w3.org/2000/svg">
<path d="M16.0201 0C16.366 0.115245 16.7346 0.123799 17.0875 0.216535C18.7325 0.649156 20.035 1.53376 20.9428 2.89734C22.1427 4.7003 22.3047 6.62031 21.5128 8.60785C21.1822 9.43752 20.644 10.1461 19.9837 10.7718C16.1968 14.3607 12.4119 17.9513 8.62215 21.5374C6.88927 23.1769 4.43341 23.4606 2.35376 22.2743C0.435627 21.1804 -0.477365 18.7873 0.248469 16.7754C0.516381 16.0331 0.942475 15.3893 1.52675 14.8356C5.23525 11.3211 8.93994 7.80248 12.6532 4.29199C14.407 2.63399 17.2281 3.11838 18.2299 5.23692C18.7857 6.41188 18.5292 7.82229 17.5226 8.78432C14.786 11.3994 12.0323 13.9983 9.28291 16.6007C8.91761 16.9465 8.38701 16.951 8.05545 16.6282C7.71961 16.3014 7.73338 15.8197 8.10438 15.4668C9.75508 13.8974 11.4096 12.3322 13.0627 10.7651C14.1239 9.7594 15.1865 8.75505 16.2453 7.74711C16.8291 7.19159 16.9878 6.46005 16.6685 5.83835C16.1603 4.84841 14.8948 4.58776 13.997 5.28914C13.9239 5.34631 13.8536 5.40618 13.7866 5.46966C10.1056 8.95853 6.42375 12.4456 2.74566 15.9363C1.71581 16.9136 1.41702 18.0733 1.90677 19.3738C2.66918 21.3978 5.46136 22.0614 7.16906 20.6433C7.26976 20.5596 7.36809 20.4727 7.4631 20.3827C11.2276 16.8155 14.9903 13.246 18.7577 9.68107C19.6018 8.88245 20.1481 7.94158 20.2711 6.81299C20.4359 5.30354 19.9718 3.97732 18.808 2.923C17.1151 1.3906 14.749 1.16821 12.7487 2.31391C12.3819 2.52415 12.0632 2.79245 11.7611 3.07876C8.99077 5.70375 6.21949 8.32829 3.45154 10.956C3.18743 11.2067 2.89766 11.3508 2.51907 11.2409C1.94762 11.0753 1.73529 10.4374 2.10295 9.99169C2.15141 9.93317 2.20793 9.8796 2.26351 9.82693C5.05046 7.18528 7.83789 4.54454 10.6244 1.9029C11.5982 0.979586 12.7529 0.376348 14.1068 0.117046C14.2873 0.0823825 14.4844 0.112094 14.6464 0.000450178C15.1038 0 15.5622 0 16.0201 0Z" fill="white"/>
</svg>
