<svg width="37" height="37" viewBox="0 0 37 37" fill="none" xmlns="http://www.w3.org/2000/svg">
<path d="M0.0103683 18.4516C-0.245015 8.84703 8.01056 -0.363009 19.1737 0.0110167C28.2022 0.314059 37.0068 7.55159 37 18.528C36.9945 28.7728 28.9506 37.0245 18.4772 36.9999C6.77871 36.9713 -0.309202 27.1961 0.0103683 18.4516ZM27.7311 12.2064C27.7721 11.0884 26.8857 10.4728 25.886 10.8496C19.6121 13.2138 13.3436 15.5918 7.07234 17.9629C6.608 18.139 6.2379 18.4011 6.25019 18.9416C6.26248 19.4835 6.64897 19.7224 7.11877 19.8808C8.20722 20.2466 9.3025 20.5961 10.3732 21.0097C11.2909 21.3646 12.0926 21.254 12.9161 20.723C15.4631 19.0781 18.0333 17.4701 20.5954 15.8484C20.9832 15.6027 21.367 15.3461 21.7699 15.1277C21.8791 15.069 22.0539 15.129 22.2001 15.1358C22.1796 15.2942 22.2069 15.4853 22.129 15.6054C22.0061 15.7938 21.8122 15.9344 21.6469 16.0941C19.6448 18.0229 17.6387 19.9477 15.642 21.8819C14.9701 22.5317 14.9892 23.0477 15.7294 23.5869C17.8462 25.1294 19.9658 26.6665 22.1058 28.1776C23.0495 28.8437 24.1093 28.4124 24.4125 27.2903C24.4548 27.1347 24.4876 26.9777 24.5217 26.8207C25.2633 23.4586 26.0076 20.0951 26.7464 16.7316C27.0851 15.1863 27.4183 13.6384 27.7311 12.2064Z" fill="white"/>
</svg>
