<svg width="16" height="17" viewBox="0 0 16 17" fill="none" xmlns="http://www.w3.org/2000/svg">
<path fill-rule="evenodd" clip-rule="evenodd" d="M14.9547 6.15955C15.3181 6.19915 15.5998 5.84814 15.4824 5.50195L13.7321 0.339617C13.6054 -0.0342419 13.1157 -0.120654 12.8686 0.187238L11.5799 1.79335C10.4185 1.21223 9.12696 0.919654 7.81596 0.949822C6.07962 0.989777 4.40345 1.59371 3.04065 2.67038C1.67784 3.74706 0.702437 5.23799 0.261779 6.91795C-0.17888 8.59792 -0.0608537 10.3757 0.598027 11.9826C1.25691 13.5896 2.42085 14.9385 3.91403 15.8256C5.40721 16.7126 7.14851 17.0897 8.87489 16.8997C10.6013 16.7098 12.2189 15.9632 13.4836 14.7727C14.6265 13.6968 15.4249 12.311 15.7848 10.7906C15.8485 10.5219 15.6641 10.2629 15.392 10.2162L14.4328 10.0516C14.1606 10.0049 13.9042 10.1884 13.8351 10.4558C13.5513 11.5542 12.962 12.5538 12.1311 13.336C11.1784 14.2329 9.95968 14.7953 8.6591 14.9384C7.35853 15.0815 6.04671 14.7974 4.92181 14.1292C3.79692 13.4609 2.92006 12.4447 2.42369 11.2341C1.92732 10.0235 1.8384 8.68419 2.17037 7.41858C2.50235 6.15297 3.23717 5.02977 4.26385 4.21865C5.29052 3.40753 6.55328 2.95256 7.86135 2.92246C8.7045 2.90306 9.53695 3.06086 10.3068 3.37981L9.20001 4.75915C8.95295 5.06704 9.14338 5.52638 9.53582 5.56914L14.9547 6.15955Z" fill="black"/>
</svg>
