<svg width="37" height="37" viewBox="0 0 37 37" fill="none" xmlns="http://www.w3.org/2000/svg">
<path d="M19.1797 0.00245945C20.1574 0.11303 21.1515 0.143061 22.1116 0.340996C26.453 1.23921 30.0454 3.41376 32.8398 6.86875C35.1235 9.69307 36.4567 12.9269 36.8271 16.5498C36.8802 17.0754 36.932 17.6009 36.9851 18.1265C37.0709 19.2253 36.7672 21.2156 36.5738 22.1425C35.592 26.8397 33.1843 30.655 29.3018 33.4698C25.132 36.4934 20.4611 37.5527 15.3843 36.7323C11.7429 36.144 8.56721 34.5537 5.88176 32.0283C2.687 29.0238 0.775039 25.3367 0.174489 20.974C-0.114211 18.8745 -0.046123 16.7873 0.38965 14.7165C1.25439 10.609 3.27937 7.17452 6.45371 4.43893C9.34615 1.94768 12.6989 0.493884 16.4983 0.0911888C17.0348 0.033856 19.0625 -0.0111912 19.1797 0.00245945ZM24.7943 30.18C25.1334 30.1049 25.4752 30.0926 25.7571 29.9548C27.2074 29.2504 28.2097 28.0969 28.8211 26.6267C29.0949 25.9701 28.941 25.3176 28.3568 24.8276C27.9973 24.5245 27.6582 24.1914 27.2769 23.9198C26.3168 23.2345 25.3581 22.5438 24.3599 21.9159C23.2855 21.2402 22.3935 21.4313 21.6023 22.4141C21.3749 22.6967 21.1488 22.9793 20.9105 23.2509C20.6109 23.5935 20.2323 23.756 19.7816 23.6386C19.4003 23.5389 19.0149 23.4284 18.6554 23.2687C17.265 22.6517 16.1211 21.7002 15.1065 20.5808C14.2159 19.5994 13.5418 18.5005 13.2531 17.1927C13.1142 16.5607 13.2164 16.0024 13.7706 15.5751C14.1615 15.2735 14.5305 14.9418 14.8914 14.6046C15.3489 14.1787 15.5096 13.6504 15.2713 13.0593C14.4856 11.1059 13.2109 9.49104 11.6721 8.09594C11.1437 7.6168 10.437 7.57995 9.77921 7.96763C8.82731 8.5273 7.96394 9.20028 7.22585 10.0261C6.88404 10.4084 6.6607 10.8588 6.73015 11.3776C6.79824 11.899 6.87042 12.4369 7.05698 12.9228C10.185 21.0682 15.8405 26.7182 23.8915 29.9821C24.1747 30.0981 24.4961 30.1172 24.7943 30.18ZM18.5546 7.36973C18.4579 7.36973 18.3612 7.36973 18.2659 7.36973C17.7225 7.37246 17.442 7.60042 17.4325 8.04953C17.4216 8.51911 17.7008 8.76346 18.2536 8.80032C18.7085 8.83171 19.1647 8.87267 19.6154 8.93546C23.2705 9.44463 26.0853 11.9154 26.9718 15.4851C27.2251 16.5048 27.2755 17.5777 27.4076 18.6261C27.458 19.0206 27.7004 19.284 28.0735 19.3045C28.4276 19.3236 28.7054 19.1025 28.783 18.7203C28.8143 18.5687 28.832 18.4063 28.8143 18.2534C28.7095 17.3579 28.6468 16.4515 28.4712 15.5697C27.522 10.7797 23.3195 7.47757 18.5546 7.36973ZM26.1616 17.1559C26.1793 17.1518 26.197 17.1477 26.2147 17.145C26.0989 16.4952 26.0349 15.8304 25.8579 15.197C24.8788 11.7052 21.8855 10.1394 19.0816 10.048C18.7766 10.0384 18.5383 10.1313 18.3939 10.4125C18.1433 10.8984 18.4729 11.4021 19.0857 11.4799C19.4316 11.5236 19.7788 11.5564 20.1179 11.6301C22.3254 12.1079 23.8424 13.3801 24.4702 15.5833C24.6527 16.2222 24.6568 16.9143 24.7317 17.5832C24.7766 17.979 24.9945 18.2097 25.3731 18.2288C25.783 18.2493 26.0526 18.0541 26.1248 17.6637C26.1561 17.4958 26.1507 17.3252 26.1616 17.1559ZM23.5469 16.5484C23.5292 16.4119 23.502 16.2454 23.4856 16.0775C23.2991 14.1104 21.7371 12.7372 19.7584 12.8027C19.4112 12.8136 19.1565 13.0279 19.1007 13.3542C19.0421 13.7023 19.2123 14.0299 19.5337 14.1405C19.6903 14.1951 19.8619 14.2142 20.0281 14.236C21.2074 14.3916 21.7943 14.9281 22.0353 16.0829C22.0775 16.2822 22.0952 16.4884 22.1279 16.689C22.2069 17.1723 22.452 17.3825 22.9028 17.3538C23.2841 17.332 23.5415 17.0221 23.5469 16.5484Z" fill="white"/>
</svg>
