<svg width="40" height="40" viewBox="0 0 40 40" fill="none" xmlns="http://www.w3.org/2000/svg">
<path d="M22.9657 15.3328C22.9657 16.3104 22.9657 17.29 22.9657 18.2675C22.9657 18.427 22.9679 18.5886 23.0162 18.744C23.0315 18.7951 23.0513 18.8483 23.0754 18.8974C23.2004 19.1489 23.3825 19.2307 23.6698 19.1673C23.8804 19.1203 24.058 19.014 24.2269 18.8913C24.7665 18.4966 25.2118 18.0201 25.6241 17.5149C26.6112 16.3124 27.4205 15.0077 28.1466 13.6559C28.3966 13.1896 28.6401 12.7213 28.8506 12.2386C29.1051 11.6497 29.5591 11.3368 30.2435 11.3347C31.3621 11.3306 32.4807 11.3245 33.5994 11.3388C33.7134 11.3409 33.8253 11.3531 33.935 11.3797C34.3737 11.4861 34.5711 11.7621 34.4965 12.1814C34.4285 12.5699 34.2771 12.936 34.1017 13.2939C33.6652 14.1774 33.1322 15.0118 32.586 15.838C31.8293 16.9812 31.0287 18.0957 30.204 19.196C30.1009 19.333 30.0088 19.4762 29.9276 19.6234C29.7894 19.8749 29.8004 20.1204 29.9539 20.3637C30.1162 20.6214 30.329 20.8423 30.5527 21.0529C31.0397 21.5151 31.5551 21.9487 32.0201 22.4313C32.8405 23.2841 33.6586 24.1389 34.3583 25.0817C34.6215 25.4375 34.8672 25.8057 35.0207 26.2188C35.0668 26.3415 35.0953 26.4683 35.1041 26.5971C35.137 27.0818 34.8803 27.3865 34.3693 27.4826C34.207 27.5133 34.0446 27.5235 33.8779 27.5235C32.8756 27.5235 31.8754 27.5092 30.873 27.5276C30.272 27.5399 29.7872 27.3374 29.3683 26.957C28.9077 26.5419 28.4953 26.0858 28.0632 25.6461C27.2999 24.869 26.5103 24.1164 25.6132 23.4702C25.2425 23.2023 24.8586 22.9569 24.4221 22.7892C24.1458 22.6828 23.8584 22.6481 23.5623 22.6767C23.2202 22.7094 23.0513 22.873 22.9964 23.2125C22.9679 23.3925 22.9657 23.5724 22.9657 23.7524C22.9657 24.597 22.9657 25.4437 22.9657 26.2883C22.9657 26.4253 22.9591 26.5603 22.935 26.6953C22.8868 26.9775 22.7157 27.1718 22.4415 27.2904C22.1037 27.4356 21.7418 27.4744 21.3755 27.499C19.3093 27.634 17.412 27.1247 15.6332 26.1779C14.0166 25.3148 12.6567 24.1696 11.5161 22.8035C10.4808 21.5621 9.56618 20.2431 8.72611 18.881C7.82023 17.4106 7.02621 15.8911 6.42741 14.2878C6.20368 13.6825 6.00189 13.071 5.89661 12.435C5.87248 12.2877 5.8659 12.1384 5.88564 11.9871C5.92951 11.6517 6.17078 11.4308 6.5656 11.3633C6.72352 11.3368 6.88584 11.3286 7.04595 11.3286C8.0615 11.3286 9.07925 11.3286 10.0948 11.3286C10.2637 11.3286 10.4304 11.3347 10.5971 11.3695C10.9239 11.439 11.1564 11.6251 11.3209 11.8889C11.4898 12.1589 11.5863 12.4554 11.6982 12.7479C12.4461 14.6927 13.3783 16.5558 14.5847 18.2941C14.9861 18.8729 15.4204 19.4291 15.9446 19.9179C16.085 20.0488 16.2341 20.1694 16.3965 20.2717C16.4996 20.3371 16.607 20.3923 16.7277 20.4251C17.0633 20.5151 17.3089 20.3883 17.401 20.0774C17.4647 19.8627 17.4756 19.6398 17.4756 19.4189C17.4778 17.9301 17.491 16.4392 17.4734 14.9504C17.4647 14.1385 17.2036 13.3941 16.6246 12.7683C16.5149 12.6497 16.4096 12.527 16.3241 12.39C16.0367 11.9278 16.3285 11.394 16.8988 11.3368C16.9711 11.3286 17.0435 11.3265 17.1181 11.3265C18.7302 11.3265 20.3424 11.3265 21.9546 11.3265C22.0862 11.3265 22.2178 11.3306 22.3472 11.3572C22.6038 11.4104 22.7749 11.5515 22.8648 11.7805C22.9548 12.0096 22.9613 12.2468 22.9613 12.4861C22.9657 13.4371 22.9657 14.3839 22.9657 15.3328Z" fill="#4A4A4A"/>
</svg>
