<svg width="29" height="29" viewBox="0 0 29 29" fill="none" xmlns="http://www.w3.org/2000/svg">
<path fill-rule="evenodd" clip-rule="evenodd" d="M28.9849 14.5C28.9849 22.5081 22.4964 29 14.4925 29C6.48849 29 0 22.5081 0 14.5C0 6.49187 6.48849 0 14.4925 0C22.4964 0 28.9849 6.49187 28.9849 14.5ZM15.3388 12.9726C15.3391 12.7993 15.3394 12.626 15.3394 12.4526H15.3374C15.3374 12.2703 15.338 12.0879 15.3387 11.9056C15.3403 11.4746 15.3419 11.0437 15.3346 10.6127C15.3264 10.1515 15.1831 10.0074 14.7554 10.0052C14.3141 10.0033 13.8728 10.0036 13.4315 10.0039C13.0303 10.0042 12.6292 10.0044 12.228 10.0031C12.0134 10.0023 11.8153 10.0306 11.6995 10.2521C11.5761 10.4889 11.6988 10.6707 11.8352 10.8372C12.2136 11.2984 12.3493 11.8379 12.3411 12.4381C12.336 12.8084 12.3371 13.1788 12.3383 13.5491C12.3396 13.9724 12.3409 14.3956 12.3329 14.8189C12.3317 14.879 12.3366 14.944 12.3416 15.0103C12.3592 15.2441 12.378 15.4933 12.1334 15.5965C11.8439 15.7192 11.648 15.4836 11.4727 15.2728C11.4483 15.2435 11.4244 15.2147 11.4006 15.1874C10.818 14.5184 10.4005 13.7306 10.0111 12.9269C9.65262 12.1883 9.35581 11.4222 9.09669 10.6388C8.99044 10.3173 8.82661 10.0277 8.46536 10.0175C7.79426 9.99944 7.1218 9.9951 6.45139 10.0212C6.09974 10.0349 5.96401 10.2587 6.00377 10.6417C6.03599 10.953 6.11619 11.2543 6.20873 11.5511C6.83252 13.5481 7.83265 15.3322 9.01992 17.0019C9.79041 18.0859 10.7549 18.9359 11.9367 19.4913C12.8175 19.9047 13.7368 20.0807 14.6985 19.9576C15.1859 19.8953 15.3333 19.7223 15.3381 19.2125C15.3405 18.954 15.3399 18.6955 15.3394 18.437C15.3389 18.1785 15.3384 17.92 15.3408 17.6616C15.3463 17.0323 15.6184 16.8448 16.173 17.0946C16.5767 17.2764 16.903 17.5805 17.2273 17.8838C17.6204 18.2521 17.9744 18.6597 18.3286 19.0675C18.4592 19.2178 18.5897 19.3682 18.7223 19.5166C18.9355 19.7556 19.1686 19.9815 19.501 19.9873C20.1495 19.9989 20.7987 20.0104 21.4464 19.9836C21.9119 19.9641 22.086 19.6585 21.9366 19.1879C21.8303 18.8541 21.6384 18.5674 21.4396 18.2886C20.8425 17.4501 20.1605 16.6935 19.4565 15.9564C19.0041 15.4821 19.0027 15.3235 19.3612 14.7761C19.9706 13.8472 20.569 12.9117 21.0934 11.9255C21.2943 11.5482 21.4931 11.1688 21.6062 10.7503C21.7433 10.242 21.5911 10.019 21.0907 10.0081C20.8467 10.0028 20.6026 10.0046 20.3584 10.0064C20.0676 10.0086 19.7767 10.0107 19.486 10.0009C19.002 9.98424 18.7072 10.2007 18.516 10.675C18.0965 11.7162 17.5762 12.7024 16.9442 13.6198C16.7029 13.9695 16.4479 14.3091 16.1305 14.5886C16.1163 14.601 16.1021 14.6138 16.0877 14.6266C15.9339 14.7641 15.7673 14.9129 15.556 14.8189C15.3397 14.7232 15.3403 14.4956 15.3409 14.2858C15.3409 14.2636 15.341 14.2416 15.3408 14.22C15.3374 13.804 15.3381 13.3884 15.3388 12.9726Z" fill="white"/>
</svg>
