<svg width="44" height="45" viewBox="0 0 44 45" fill="none" xmlns="http://www.w3.org/2000/svg">
<path fill-rule="evenodd" clip-rule="evenodd" d="M27.0142 0.5H6V25.7002V44.4999V44.5002H38.8V44.4999V25.7002V12.2858L27.0142 0.5ZM36.8 25.7002V14.1H25.2V2.5H8V25.7002H36.8Z" fill="#1F7246"/>
<path d="M18.3567 38.5L16.8357 36.313L15.3417 38.5H13.6677L15.9987 35.296L13.7847 32.2H15.4407L16.8897 34.243L18.3117 32.2H19.8867L17.6907 35.242L20.0397 38.5H18.3567Z" fill="white"/>
<path d="M20.7904 32.2H22.2484V37.312H25.4074V38.5H20.7904V32.2Z" fill="white"/>
<path d="M28.4369 38.608C27.9389 38.608 27.4559 38.542 26.9879 38.41C26.5259 38.272 26.1539 38.095 25.8719 37.879L26.3669 36.781C26.6369 36.979 26.9579 37.138 27.3299 37.258C27.7019 37.378 28.0739 37.438 28.4459 37.438C28.8599 37.438 29.1659 37.378 29.3639 37.258C29.5619 37.132 29.6609 36.967 29.6609 36.763C29.6609 36.613 29.6009 36.49 29.4809 36.394C29.3669 36.292 29.2169 36.211 29.0309 36.151C28.8509 36.091 28.6049 36.025 28.2929 35.953C27.8129 35.839 27.4199 35.725 27.1139 35.611C26.8079 35.497 26.5439 35.314 26.3219 35.062C26.1059 34.81 25.9979 34.474 25.9979 34.054C25.9979 33.688 26.0969 33.358 26.2949 33.064C26.4929 32.764 26.7899 32.527 27.1859 32.353C27.5879 32.179 28.0769 32.092 28.6529 32.092C29.0549 32.092 29.4479 32.14 29.8319 32.236C30.2159 32.332 30.5519 32.47 30.8399 32.65L30.3899 33.757C29.8079 33.427 29.2259 33.262 28.6439 33.262C28.2359 33.262 27.9329 33.328 27.7349 33.46C27.5429 33.592 27.4469 33.766 27.4469 33.982C27.4469 34.198 27.5579 34.36 27.7799 34.468C28.0079 34.57 28.3529 34.672 28.8149 34.774C29.2949 34.888 29.6879 35.002 29.9939 35.116C30.2999 35.23 30.5609 35.41 30.7769 35.656C30.9989 35.902 31.1099 36.235 31.1099 36.655C31.1099 37.015 31.0079 37.345 30.8039 37.645C30.6059 37.939 30.3059 38.173 29.9039 38.347C29.5019 38.521 29.0129 38.608 28.4369 38.608Z" fill="white"/>
</svg>
