<svg width="44" height="45" viewBox="0 0 44 45" fill="none" xmlns="http://www.w3.org/2000/svg">
<path fill-rule="evenodd" clip-rule="evenodd" d="M27.0142 0.5H6V25.7002V44.4999V44.5002H38.8V44.4999V25.7002V12.2858L27.0142 0.5ZM36.8 25.7002V14.1H25.2V2.5H8V25.7002H36.8Z" fill="#F50000"/>
<path d="M15.9501 32.2C16.5081 32.2 16.9911 32.293 17.3991 32.479C17.8131 32.665 18.1311 32.929 18.3531 33.271C18.5751 33.613 18.6861 34.018 18.6861 34.486C18.6861 34.948 18.5751 35.353 18.3531 35.701C18.1311 36.043 17.8131 36.307 17.3991 36.493C16.9911 36.673 16.5081 36.763 15.9501 36.763H14.6811V38.5H13.2231V32.2H15.9501ZM15.8691 35.575C16.3071 35.575 16.6401 35.482 16.8681 35.296C17.0961 35.104 17.2101 34.834 17.2101 34.486C17.2101 34.132 17.0961 33.862 16.8681 33.676C16.6401 33.484 16.3071 33.388 15.8691 33.388H14.6811V35.575H15.8691Z" fill="white"/>
<path d="M19.9071 32.2H22.7691C23.4531 32.2 24.0561 32.332 24.5781 32.596C25.1061 32.854 25.5141 33.22 25.8021 33.694C26.0961 34.168 26.2431 34.72 26.2431 35.35C26.2431 35.98 26.0961 36.532 25.8021 37.006C25.5141 37.48 25.1061 37.849 24.5781 38.113C24.0561 38.371 23.4531 38.5 22.7691 38.5H19.9071V32.2ZM22.6971 37.303C23.3271 37.303 23.8281 37.129 24.2001 36.781C24.5781 36.427 24.7671 35.95 24.7671 35.35C24.7671 34.75 24.5781 34.276 24.2001 33.928C23.8281 33.574 23.3271 33.397 22.6971 33.397H21.3651V37.303H22.6971Z" fill="white"/>
<path d="M28.9806 33.37V35.035H31.8966V36.205H28.9806V38.5H27.5226V32.2H32.2836V33.37H28.9806Z" fill="white"/>
</svg>
