<svg xmlns="http://www.w3.org/2000/svg" viewBox="0 0 24 24" id="phone"><path fill-rule="evenodd" clip-rule="evenodd" d="M19.965 16.397c-.045-.136-.333-.337-.863-.602a26.529 26.529 0 00-.614-.341 57.573 57.573 0 01-.721-.398 24.117 24.117 0 01-.608-.352c-.03-.023-.125-.089-.284-.199a3.192 3.192 0 00-.404-.244.744.744 0 00-.324-.08c-.151 0-.34.108-.567.324a5.53 5.53 0 00-.625.705c-.19.254-.39.488-.602.704-.213.216-.387.324-.523.324a.773.773 0 01-.256-.057 2.64 2.64 0 01-.233-.096 4.274 4.274 0 01-.273-.16c-.129-.079-.2-.123-.216-.13-1.037-.576-1.928-1.235-2.67-1.977-.742-.743-1.401-1.633-1.977-2.67a6.5 6.5 0 00-.13-.217 4.084 4.084 0 01-.16-.272 2.472 2.472 0 01-.097-.233.77.77 0 01-.056-.256c0-.136.108-.31.324-.523.215-.212.45-.413.704-.602a5.53 5.53 0 00.705-.625c.215-.227.323-.416.323-.568a.742.742 0 00-.08-.324 3.158 3.158 0 00-.243-.403 9.58 9.58 0 00-.2-.284c-.113-.19-.23-.392-.352-.608a57.372 57.372 0 01-.397-.722c-.144-.265-.258-.47-.341-.613-.265-.53-.466-.819-.602-.864A.636.636 0 007.364 4a3.73 3.73 0 00-.801.114 4.5 4.5 0 00-.779.238c-.378.16-.78.621-1.204 1.386C4.194 6.45 4 7.155 4 7.852c0 .204.014.403.04.597.027.193.074.41.142.653.068.242.123.422.165.54.042.117.12.327.233.63.113.303.182.489.204.557.265.742.58 1.405.943 1.989.599.97 1.415 1.971 2.449 3.005 1.034 1.035 2.036 1.85 3.006 2.45a10.31 10.31 0 001.988.942c.069.023.254.091.557.205.303.114.513.191.63.233.118.042.298.097.54.165.243.068.46.116.654.142.193.026.392.04.596.04.697 0 1.402-.193 2.114-.58.765-.424 1.227-.825 1.386-1.204.084-.19.163-.449.239-.779a3.74 3.74 0 00.113-.8.633.633 0 00-.034-.24z"></path></svg>