<svg width="44" height="45" viewBox="0 0 44 45" fill="none" xmlns="http://www.w3.org/2000/svg">
<path fill-rule="evenodd" clip-rule="evenodd" d="M27.0142 0.5H6V25.7002V44.4999V44.5002H38.8V44.4999V25.7002V12.2858L27.0142 0.5ZM36.8 25.7002V14.1H25.2V2.5H8V25.7002H36.8Z" fill="#F7AB18"/>
<path d="M16.5963 32.2C17.1543 32.2 17.6373 32.293 18.0453 32.479C18.4593 32.665 18.7773 32.929 18.9993 33.271C19.2213 33.613 19.3323 34.018 19.3323 34.486C19.3323 34.948 19.2213 35.353 18.9993 35.701C18.7773 36.043 18.4593 36.307 18.0453 36.493C17.6373 36.673 17.1543 36.763 16.5963 36.763H15.3273V38.5H13.8693V32.2H16.5963ZM16.5153 35.575C16.9533 35.575 17.2863 35.482 17.5143 35.296C17.7423 35.104 17.8563 34.834 17.8563 34.486C17.8563 34.132 17.7423 33.862 17.5143 33.676C17.2863 33.484 16.9533 33.388 16.5153 33.388H15.3273V35.575H16.5153Z" fill="white"/>
<path d="M23.2802 32.2C23.8382 32.2 24.3212 32.293 24.7292 32.479C25.1432 32.665 25.4612 32.929 25.6832 33.271C25.9052 33.613 26.0162 34.018 26.0162 34.486C26.0162 34.948 25.9052 35.353 25.6832 35.701C25.4612 36.043 25.1432 36.307 24.7292 36.493C24.3212 36.673 23.8382 36.763 23.2802 36.763H22.0112V38.5H20.5532V32.2H23.2802ZM23.1992 35.575C23.6372 35.575 23.9702 35.482 24.1982 35.296C24.4262 35.104 24.5402 34.834 24.5402 34.486C24.5402 34.132 24.4262 33.862 24.1982 33.676C23.9702 33.484 23.6372 33.388 23.1992 33.388H22.0112V35.575H23.1992Z" fill="white"/>
<path d="M28.3663 33.388H26.3503V32.2H31.8403V33.388H29.8243V38.5H28.3663V33.388Z" fill="white"/>
</svg>
